%TF.GenerationSoftware,KiCad,Pcbnew,8.0.6*%
%TF.CreationDate,2024-12-13T15:41:07-05:00*%
%TF.ProjectId,V2_PCB,56325f50-4342-42e6-9b69-6361645f7063,rev?*%
%TF.SameCoordinates,Original*%
%TF.FileFunction,Copper,L2,Bot*%
%TF.FilePolarity,Positive*%
%FSLAX46Y46*%
G04 Gerber Fmt 4.6, Leading zero omitted, Abs format (unit mm)*
G04 Created by KiCad (PCBNEW 8.0.6) date 2024-12-13 15:41:07*
%MOMM*%
%LPD*%
G01*
G04 APERTURE LIST*
%TA.AperFunction,ComponentPad*%
%ADD10O,1.500000X2.550000*%
%TD*%
%TA.AperFunction,ViaPad*%
%ADD11C,0.400000*%
%TD*%
%TA.AperFunction,Conductor*%
%ADD12C,0.150000*%
%TD*%
G04 APERTURE END LIST*
D10*
%TO.P,J8,SH,SH*%
%TO.N,GND*%
X141833600Y-84607400D03*
X141833600Y-81247400D03*
X135633600Y-84607400D03*
X135633600Y-81247400D03*
%TD*%
D11*
%TO.N,GND*%
X142240000Y-78486000D03*
X135788400Y-78740000D03*
X142036800Y-73761600D03*
X141325600Y-76860400D03*
%TO.N,Net-(J3-Pin_1)*%
X140733600Y-81767400D03*
X135915400Y-73939400D03*
%TO.N,+3.3V*%
X137490200Y-76936600D03*
X140868400Y-75717400D03*
%TO.N,/SDA*%
X136726195Y-80594983D03*
X137143244Y-75160744D03*
%TD*%
D12*
%TO.N,/SDA*%
X136829800Y-80491378D02*
X136829800Y-75474188D01*
X136726195Y-80594983D02*
X136829800Y-80491378D01*
X136829800Y-75474188D02*
X137143244Y-75160744D01*
%TO.N,Net-(J3-Pin_1)*%
X140733600Y-76453241D02*
X140733600Y-81767400D01*
X141297171Y-75889670D02*
X140733600Y-76453241D01*
X141297171Y-75545130D02*
X141297171Y-75889670D01*
X136290251Y-73564549D02*
X138848443Y-73564549D01*
X140569494Y-75285600D02*
X141037641Y-75285600D01*
X135915400Y-73939400D02*
X136290251Y-73564549D01*
X141037641Y-75285600D02*
X141297171Y-75545130D01*
X138848443Y-73564549D02*
X140569494Y-75285600D01*
%TO.N,+3.3V*%
X139649200Y-76936600D02*
X140868400Y-75717400D01*
X137490200Y-76936600D02*
X139649200Y-76936600D01*
%TD*%
%TA.AperFunction,Conductor*%
%TO.N,GND*%
G36*
X140106026Y-77421083D02*
G01*
X140149217Y-77476004D01*
X140158100Y-77522091D01*
X140158100Y-81329380D01*
X140138415Y-81396419D01*
X140136150Y-81399820D01*
X140108783Y-81439468D01*
X140108782Y-81439468D01*
X140048460Y-81598525D01*
X140048459Y-81598530D01*
X140027955Y-81767400D01*
X140048459Y-81936269D01*
X140048460Y-81936274D01*
X140108782Y-82095331D01*
X140171075Y-82185577D01*
X140205417Y-82235329D01*
X140311105Y-82328960D01*
X140332750Y-82348136D01*
X140483373Y-82427189D01*
X140483375Y-82427190D01*
X140648544Y-82467900D01*
X140730644Y-82467900D01*
X140797683Y-82487585D01*
X140830961Y-82519013D01*
X140880153Y-82586719D01*
X141019278Y-82725844D01*
X141158618Y-82827082D01*
X141201283Y-82882413D01*
X141207262Y-82952026D01*
X141174656Y-83013821D01*
X141158618Y-83027718D01*
X141019278Y-83128955D01*
X140880155Y-83268078D01*
X140764504Y-83427256D01*
X140675181Y-83602564D01*
X140614378Y-83789694D01*
X140583600Y-83984017D01*
X140583600Y-84357400D01*
X141508600Y-84357400D01*
X141508600Y-84857400D01*
X140583600Y-84857400D01*
X140583600Y-85230782D01*
X140614378Y-85425105D01*
X140675181Y-85612235D01*
X140764504Y-85787543D01*
X140880155Y-85946721D01*
X141021253Y-86087819D01*
X141054738Y-86149142D01*
X141049754Y-86218834D01*
X141007882Y-86274767D01*
X140942418Y-86299184D01*
X140933572Y-86299500D01*
X136533628Y-86299500D01*
X136466589Y-86279815D01*
X136420834Y-86227011D01*
X136410890Y-86157853D01*
X136439915Y-86094297D01*
X136445947Y-86087819D01*
X136587043Y-85946722D01*
X136587044Y-85946721D01*
X136702695Y-85787543D01*
X136792018Y-85612235D01*
X136852821Y-85425105D01*
X136883600Y-85230782D01*
X136883600Y-84857400D01*
X135958600Y-84857400D01*
X135958600Y-84357400D01*
X136883600Y-84357400D01*
X136883600Y-83984017D01*
X136852821Y-83789694D01*
X136792018Y-83602564D01*
X136702695Y-83427256D01*
X136587044Y-83268078D01*
X136447922Y-83128956D01*
X136308581Y-83027718D01*
X136265916Y-82972388D01*
X136259937Y-82902774D01*
X136292543Y-82840979D01*
X136308581Y-82827082D01*
X136447921Y-82725843D01*
X136447922Y-82725843D01*
X136587044Y-82586721D01*
X136702695Y-82427543D01*
X136792018Y-82252235D01*
X136852821Y-82065105D01*
X136883600Y-81870782D01*
X136883600Y-81374798D01*
X136903285Y-81307759D01*
X136956089Y-81262004D01*
X136971479Y-81256646D01*
X136976417Y-81254773D01*
X136976420Y-81254773D01*
X137127047Y-81175717D01*
X137254378Y-81062912D01*
X137351013Y-80922913D01*
X137411335Y-80763855D01*
X137431840Y-80594983D01*
X137411335Y-80426111D01*
X137411334Y-80426108D01*
X137409541Y-80418832D01*
X137410980Y-80418477D01*
X137405300Y-80387475D01*
X137405300Y-77761100D01*
X137424985Y-77694061D01*
X137477789Y-77648306D01*
X137529300Y-77637100D01*
X137575256Y-77637100D01*
X137740425Y-77596390D01*
X137814674Y-77557420D01*
X137873962Y-77526304D01*
X137931588Y-77512100D01*
X137939345Y-77512100D01*
X138006384Y-77531785D01*
X138052139Y-77584589D01*
X138062441Y-77651046D01*
X138044355Y-77799999D01*
X138064859Y-77968869D01*
X138064860Y-77968874D01*
X138125182Y-78127931D01*
X138187475Y-78218177D01*
X138221817Y-78267929D01*
X138327505Y-78361560D01*
X138349150Y-78380736D01*
X138499773Y-78459789D01*
X138499775Y-78459790D01*
X138664944Y-78500500D01*
X138835056Y-78500500D01*
X139000225Y-78459790D01*
X139079692Y-78418081D01*
X139150849Y-78380736D01*
X139150850Y-78380734D01*
X139150852Y-78380734D01*
X139278183Y-78267929D01*
X139374818Y-78127930D01*
X139435140Y-77968872D01*
X139455645Y-77800000D01*
X139437559Y-77651046D01*
X139449020Y-77582123D01*
X139495923Y-77530337D01*
X139560655Y-77512100D01*
X139724964Y-77512100D01*
X139724966Y-77512100D01*
X139871335Y-77472881D01*
X139972100Y-77414703D01*
X140039999Y-77398231D01*
X140106026Y-77421083D01*
G37*
%TD.AperFunction*%
%TA.AperFunction,Conductor*%
G36*
X135883600Y-83872782D02*
G01*
X135833154Y-83822336D01*
X135759045Y-83779549D01*
X135676387Y-83757400D01*
X135590813Y-83757400D01*
X135508155Y-83779549D01*
X135434046Y-83822336D01*
X135383600Y-83872782D01*
X135383600Y-81982018D01*
X135434046Y-82032464D01*
X135508155Y-82075251D01*
X135590813Y-82097400D01*
X135676387Y-82097400D01*
X135759045Y-82075251D01*
X135833154Y-82032464D01*
X135883600Y-81982018D01*
X135883600Y-83872782D01*
G37*
%TD.AperFunction*%
%TA.AperFunction,Conductor*%
G36*
X142083600Y-83872782D02*
G01*
X142033154Y-83822336D01*
X141959045Y-83779549D01*
X141876387Y-83757400D01*
X141790813Y-83757400D01*
X141708155Y-83779549D01*
X141634046Y-83822336D01*
X141583600Y-83872782D01*
X141583600Y-81982018D01*
X141634046Y-82032464D01*
X141708155Y-82075251D01*
X141790813Y-82097400D01*
X141876387Y-82097400D01*
X141959045Y-82075251D01*
X142033154Y-82032464D01*
X142083600Y-81982018D01*
X142083600Y-83872782D01*
G37*
%TD.AperFunction*%
%TA.AperFunction,Conductor*%
G36*
X135156253Y-73949335D02*
G01*
X135206820Y-73997550D01*
X135222529Y-74044603D01*
X135230259Y-74108268D01*
X135230260Y-74108274D01*
X135290582Y-74267331D01*
X135344467Y-74345395D01*
X135387217Y-74407329D01*
X135469209Y-74479967D01*
X135514550Y-74520136D01*
X135665173Y-74599189D01*
X135665175Y-74599190D01*
X135830344Y-74639900D01*
X136000456Y-74639900D01*
X136008464Y-74637926D01*
X136078266Y-74640993D01*
X136135330Y-74681312D01*
X136140187Y-74687875D01*
X136229958Y-74817929D01*
X136357289Y-74930734D01*
X136357290Y-74930734D01*
X136362903Y-74935707D01*
X136361411Y-74937390D01*
X136398390Y-74983028D01*
X136406045Y-75052477D01*
X136374939Y-75115040D01*
X136371644Y-75118464D01*
X136369286Y-75120821D01*
X136369285Y-75120823D01*
X136293519Y-75252051D01*
X136254300Y-75398422D01*
X136254300Y-79439079D01*
X136234615Y-79506118D01*
X136181811Y-79551873D01*
X136112653Y-79561817D01*
X136091982Y-79557010D01*
X135926305Y-79503178D01*
X135883600Y-79496414D01*
X135883600Y-80512782D01*
X135833154Y-80462336D01*
X135759045Y-80419549D01*
X135676387Y-80397400D01*
X135590813Y-80397400D01*
X135508155Y-80419549D01*
X135434046Y-80462336D01*
X135383600Y-80512782D01*
X135383600Y-79496414D01*
X135383599Y-79496414D01*
X135340894Y-79503178D01*
X135153764Y-79563981D01*
X134978456Y-79653304D01*
X134897386Y-79712206D01*
X134831579Y-79735686D01*
X134763525Y-79719861D01*
X134714831Y-79669755D01*
X134700500Y-79611888D01*
X134700500Y-75502960D01*
X134700640Y-75497060D01*
X134701039Y-75488675D01*
X134718555Y-75120965D01*
X134719677Y-75109221D01*
X134736549Y-74991874D01*
X134772839Y-74739471D01*
X134775072Y-74727888D01*
X134863146Y-74364839D01*
X134866458Y-74353561D01*
X134982254Y-74018991D01*
X135022782Y-73962079D01*
X135087646Y-73936111D01*
X135156253Y-73949335D01*
G37*
%TD.AperFunction*%
%TA.AperFunction,Conductor*%
G36*
X138948558Y-71455648D02*
G01*
X139320432Y-71491157D01*
X139332109Y-71492836D01*
X139698919Y-71563533D01*
X139710358Y-71566308D01*
X140068800Y-71671556D01*
X140079932Y-71675409D01*
X140426738Y-71814249D01*
X140437472Y-71819151D01*
X140769503Y-71990325D01*
X140779723Y-71996226D01*
X141093971Y-72198182D01*
X141103582Y-72205026D01*
X141397213Y-72435938D01*
X141406132Y-72443666D01*
X141676485Y-72701448D01*
X141684628Y-72709988D01*
X141929257Y-72992305D01*
X141936551Y-73001581D01*
X142153228Y-73305861D01*
X142159608Y-73315788D01*
X142346385Y-73639296D01*
X142351792Y-73649784D01*
X142506972Y-73989580D01*
X142511357Y-74000534D01*
X142632309Y-74350000D01*
X142633533Y-74353535D01*
X142636858Y-74364858D01*
X142724927Y-74727888D01*
X142727160Y-74739475D01*
X142780322Y-75109221D01*
X142781444Y-75120968D01*
X142791384Y-75329618D01*
X142798960Y-75488674D01*
X142799360Y-75497060D01*
X142799500Y-75502960D01*
X142799500Y-79635719D01*
X142779815Y-79702758D01*
X142727011Y-79748513D01*
X142657853Y-79758457D01*
X142602614Y-79736037D01*
X142488743Y-79653304D01*
X142313435Y-79563981D01*
X142126305Y-79503178D01*
X142083600Y-79496414D01*
X142083600Y-80512782D01*
X142033154Y-80462336D01*
X141959045Y-80419549D01*
X141876387Y-80397400D01*
X141790813Y-80397400D01*
X141708155Y-80419549D01*
X141634046Y-80462336D01*
X141583600Y-80512782D01*
X141583600Y-79496414D01*
X141583599Y-79496414D01*
X141540892Y-79503178D01*
X141471417Y-79525752D01*
X141401576Y-79527747D01*
X141341744Y-79491666D01*
X141310916Y-79428965D01*
X141309100Y-79407821D01*
X141309100Y-76742983D01*
X141328785Y-76675944D01*
X141345419Y-76655302D01*
X141757686Y-76243035D01*
X141833452Y-76111805D01*
X141872671Y-75965436D01*
X141872671Y-75813903D01*
X141872671Y-75469364D01*
X141833452Y-75322995D01*
X141757686Y-75191765D01*
X141650536Y-75084615D01*
X141391006Y-74825085D01*
X141388917Y-74822996D01*
X141355432Y-74761673D01*
X141360416Y-74691981D01*
X141366569Y-74678210D01*
X141366674Y-74677932D01*
X141366676Y-74677930D01*
X141426998Y-74518872D01*
X141447503Y-74350000D01*
X141426998Y-74181128D01*
X141418884Y-74159734D01*
X141390223Y-74084159D01*
X141366676Y-74022070D01*
X141351811Y-74000535D01*
X141311375Y-73941953D01*
X141270041Y-73882071D01*
X141142710Y-73769266D01*
X141142707Y-73769263D01*
X140992084Y-73690210D01*
X140826914Y-73649500D01*
X140656802Y-73649500D01*
X140491631Y-73690210D01*
X140341008Y-73769263D01*
X140213671Y-73882074D01*
X140202702Y-73897965D01*
X140148417Y-73941953D01*
X140078968Y-73949609D01*
X140016405Y-73918502D01*
X140012975Y-73915201D01*
X139201810Y-73104036D01*
X139201808Y-73104034D01*
X139136193Y-73066151D01*
X139070579Y-73028268D01*
X138997393Y-73008658D01*
X138924209Y-72989049D01*
X136366017Y-72989049D01*
X136214484Y-72989049D01*
X136068114Y-73028268D01*
X135936886Y-73104034D01*
X135936883Y-73104036D01*
X135936878Y-73104042D01*
X135817197Y-73223721D01*
X135759192Y-73256435D01*
X135665178Y-73279608D01*
X135665173Y-73279610D01*
X135646535Y-73289392D01*
X135578027Y-73303116D01*
X135512974Y-73277623D01*
X135472030Y-73221007D01*
X135468196Y-73151242D01*
X135487900Y-73107673D01*
X135563463Y-73001560D01*
X135570735Y-72992312D01*
X135815379Y-72709978D01*
X135823505Y-72701456D01*
X136093881Y-72443653D01*
X136102771Y-72435950D01*
X136396420Y-72205023D01*
X136406028Y-72198182D01*
X136720285Y-71996220D01*
X136730487Y-71990329D01*
X137062536Y-71819146D01*
X137073251Y-71814253D01*
X137420073Y-71675406D01*
X137431192Y-71671558D01*
X137789646Y-71566307D01*
X137801075Y-71563534D01*
X138167893Y-71492836D01*
X138179564Y-71491157D01*
X138551442Y-71455648D01*
X138563229Y-71455087D01*
X138936771Y-71455087D01*
X138948558Y-71455648D01*
G37*
%TD.AperFunction*%
%TD*%
M02*
