<?xml version="1.0" standalone="no"?>
 <!DOCTYPE svg PUBLIC "-//W3C//DTD SVG 1.1//EN" 
 "http://www.w3.org/Graphics/SVG/1.1/DTD/svg11.dtd"> 
<svg
  xmlns:svg="http://www.w3.org/2000/svg"
  xmlns="http://www.w3.org/2000/svg"
  xmlns:xlink="http://www.w3.org/1999/xlink"
  version="1.1"
  width="297.0022mm" height="210.0072mm" viewBox="0.0000 0.0000 297.0022 210.0072">
<title>SVG Image created as V2_PCB-B_Cu.svg date 2024/12/01 18:59:24 </title>
  <desc>Image generated by PCBNEW </desc>
<g style="fill:#000000; fill-opacity:1.0000;stroke:#000000; stroke-opacity:1.0000;
stroke-linecap:round; stroke-linejoin:round;"
 transform="translate(0 0) scale(1 1)">
</g>
<g style="fill:none; 
stroke:#000000; stroke-width:1.6002; stroke-opacity:1; 
stroke-linecap:round; stroke-linejoin:round;">
<path d="M141.8590 85.3567
L141.8590 84.3153
" />
<path d="M141.8590 81.9967
L141.8590 80.9553
" />
<path d="M135.6590 85.3567
L135.6590 84.3153
" />
<path d="M135.6590 81.9967
L135.6590 80.9553
" />
</g>
<g style="fill:#000000; fill-opacity:1.0000; stroke:none;">
<circle cx="141.8336" cy="73.7870" r="0.4000" /> 
</g>
<g style="fill:#000000; fill-opacity:1.0000; stroke:none;">
<circle cx="141.1986" cy="76.7334" r="0.4000" /> 
</g>
<g style="fill:#000000; fill-opacity:1.0000; stroke:none;">
<circle cx="136.1440" cy="76.4540" r="0.4000" /> 
</g>
<g style="fill:#000000; fill-opacity:1.0000; stroke:none;">
<circle cx="136.3090" cy="78.6638" r="0.4000" /> 
</g>
<g style="fill:#000000; fill-opacity:1.0000; stroke:none;">
<circle cx="138.4300" cy="83.0326" r="0.4000" /> 
</g>
<g style="fill:#000000; fill-opacity:1.0000; stroke:none;">
<circle cx="135.3981" cy="74.0610" r="0.4000" /> 
</g>
<g style="fill:#000000; fill-opacity:1.0000; stroke:none;">
<circle cx="136.8808" cy="75.4411" r="0.4000" /> 
</g>
<g style="fill:#000000; fill-opacity:1.0000; stroke:none;">
<circle cx="136.9340" cy="82.4764" r="0.4000" /> 
</g>
<g style="fill:none; 
stroke:#000000; stroke-width:0.1500; stroke-opacity:1; 
stroke-linecap:round; stroke-linejoin:round;">
<path d="M136.3090 78.0668
L136.1440 77.9018
" />
<path d="M136.3090 78.6638
L136.3090 78.0668
" />
<path d="M136.1440 77.9018
L136.1440 76.4540
" />
<path d="M136.8808 75.4411
L136.9340 75.4943
" />
<path d="M136.9340 75.4943
L136.9340 82.4764
" />
<path d="M138.3030 83.0326
L138.4300 83.0326
" />
<path d="M138.2776 83.0072
L138.3030 83.0326
" />
<path d="M137.9728 82.7024
L138.2776 83.0072
" />
<path d="M137.9728 74.4567
L137.9728 82.7024
" />
<path d="M135.8945 73.5645
L137.0807 73.5645
" />
<path d="M135.3981 74.0610
L135.8945 73.5645
" />
<path d="M137.0807 73.5645
L137.9728 74.4567
" />
<path style="fill:#000000; fill-opacity:1.0000; stroke:none;fill-rule:evenodd;"
d="M 138.9486,71.4556
139.3204,71.4912
139.3321,71.4928
139.6989,71.5635
139.7104,71.5663
140.0688,71.6716
140.0799,71.6754
140.4267,71.8142
140.4375,71.8192
140.7695,71.9903
140.7797,71.9962
141.0940,72.1982
141.1036,72.2050
141.3972,72.4359
141.4061,72.4437
141.6765,72.7014
141.6846,72.7100
141.9293,72.9923
141.9366,73.0016
142.1532,73.3059
142.1596,73.3158
142.3464,73.6393
142.3518,73.6498
142.5070,73.9896
142.5114,74.0005
142.6323,74.3500
142.6335,74.3535
142.6369,74.3649
142.7249,74.7279
142.7272,74.7395
142.7803,75.1092
142.7814,75.1210
142.7994,75.4971
142.7995,75.5030
142.7995,79.7882
142.7798,79.8553
142.7270,79.9010
142.6579,79.9110
142.6026,79.8886
142.5404,79.8434
142.3581,79.7504
142.3581,79.7504
142.1634,79.6872
142.1634,79.6872
142.1090,79.6786
142.1090,80.2850
142.0893,80.3520
142.0365,80.3978
141.9674,80.4077
141.9529,80.4047
141.9322,80.3992
141.9322,80.3992
141.7858,80.3992
141.7858,80.3992
141.7651,80.4047
141.6952,80.4031
141.6374,80.3639
141.6099,80.2997
141.6090,80.2850
141.6090,79.6786
141.6090,79.6786
141.5546,79.6872
141.5546,79.6872
141.3599,79.7504
141.1776,79.8434
141.0120,79.9636
140.8673,80.1083
140.7471,80.2739
140.6541,80.4562
140.5909,80.6509
140.5909,80.6509
140.5589,80.8530
140.5589,81.2260
141.3016,81.2260
141.3686,81.2457
141.4090,81.2880
141.4140,81.2968
141.4140,81.2968
141.5056,81.3883
141.5391,81.4496
141.5341,81.5193
141.5056,81.5637
141.4140,81.6552
141.4140,81.6552
141.4090,81.6640
141.3584,81.7122
141.3016,81.7260
140.5589,81.7260
140.5589,82.0990
140.5909,82.3011
140.5909,82.3011
140.6541,82.4958
140.7471,82.6781
140.8673,82.8437
141.0120,82.9884
141.1047,83.0557
141.1474,83.1110
141.1533,83.1806
141.1207,83.2424
141.1047,83.2563
141.0120,83.3236
140.8673,83.4683
140.7471,83.6339
140.6541,83.8162
140.5909,84.0109
140.5909,84.0109
140.5589,84.2130
140.5589,84.5860
141.3016,84.5860
141.3686,84.6057
141.4090,84.6480
141.4140,84.6568
141.4140,84.6568
141.5056,84.7483
141.5391,84.8096
141.5341,84.8793
141.5056,84.9237
141.4140,85.0152
141.4140,85.0152
141.4090,85.0240
141.3584,85.0722
141.3016,85.0860
140.5589,85.0860
140.5589,85.4590
140.5909,85.6611
140.5909,85.6611
140.6541,85.8558
140.7471,86.0381
140.7939,86.1026
140.8174,86.1684
140.8016,86.2365
140.7515,86.2852
140.6936,86.2995
136.8244,86.2995
136.7574,86.2798
136.7116,86.2270
136.7017,86.1579
136.7241,86.1026
136.7709,86.0381
136.8639,85.8558
136.9271,85.6611
136.9271,85.6611
136.9591,85.4590
136.9591,85.0860
136.2164,85.0860
136.1494,85.0663
136.1090,85.0240
136.1040,85.0152
136.0124,84.9237
135.9789,84.8624
135.9839,84.7927
136.0124,84.7483
136.0507,84.7100
136.1040,84.6568
136.1090,84.6480
136.1596,84.5998
136.2164,84.5860
136.9591,84.5860
136.9591,84.2130
136.9271,84.0109
136.9271,84.0109
136.8639,83.8162
136.7709,83.6339
136.7268,83.5731
136.7033,83.5073
136.7191,83.4393
136.7693,83.3906
136.8329,83.3777
136.8329,83.3769
136.8370,83.3769
136.8377,83.3767
136.8393,83.3769
136.8394,83.3769
137.0286,83.3769
137.0286,83.3769
137.2138,83.3375
137.3867,83.2605
137.3867,83.2605
137.3924,83.2573
137.3930,83.2583
137.4524,83.2371
137.5204,83.2530
137.5691,83.3031
137.5774,83.3226
137.6028,83.4009
137.6028,83.4009
137.6975,83.5648
137.8241,83.7055
137.9773,83.8167
137.9773,83.8168
138.1502,83.8937
138.1502,83.8937
138.3354,83.9331
138.3354,83.9331
138.5246,83.9331
138.5246,83.9331
138.7098,83.8937
138.8827,83.8168
139.0359,83.7055
139.1625,83.5648
139.2572,83.4009
139.3157,83.2209
139.3355,83.0326
139.3157,82.8443
139.2572,82.6643
139.1625,82.5004
139.0359,82.3597
139.0062,82.3382
138.8827,82.2485
138.8827,82.2484
138.7098,82.1715
138.7098,82.1715
138.6465,82.1580
138.5850,82.1248
138.5513,82.0636
138.5483,82.0367
138.5483,78.6245
138.5680,78.5575
138.6208,78.5117
138.6723,78.5005
138.8351,78.5005
139.0002,78.4598
139.0797,78.4181
139.1508,78.3807
139.1508,78.3807
139.1509,78.3807
139.2782,78.2679
139.3748,78.1279
139.4351,77.9689
139.4556,77.8000
139.4351,77.6311
139.3748,77.4721
139.2782,77.3321
139.1509,77.2193
139.1508,77.2193
139.0002,77.1402
138.8351,77.0995
138.6723,77.0995
138.6053,77.0798
138.5595,77.0270
138.5483,76.9755
138.5483,74.3809
138.5483,74.3809
138.5400,74.3500
140.0362,74.3500
140.0567,74.5189
140.0567,74.5189
140.1170,74.6779
140.1555,74.7336
140.2137,74.8179
140.2888,74.8845
140.3410,74.9307
140.4916,75.0098
140.4916,75.0098
140.6568,75.0505
140.8269,75.0505
140.9921,75.0098
141.0841,74.9615
141.1427,74.9307
141.1427,74.9307
141.1427,74.9307
141.2700,74.8179
141.3667,74.6779
141.4270,74.5189
141.4475,74.3500
141.4270,74.1811
141.4189,74.1597
141.3898,74.0831
141.3667,74.0221
141.3518,74.0005
141.3323,73.9723
141.2700,73.8821
141.1427,73.7693
141.1427,73.7693
140.9921,73.6902
140.8269,73.6495
140.6568,73.6495
140.4916,73.6902
140.3410,73.7693
140.2137,73.8821
140.1170,74.0221
140.0567,74.1811
140.0567,74.1811
140.0362,74.3500
138.5400,74.3500
138.5091,74.2346
138.5057,74.2286
138.4755,74.1764
138.4333,74.1033
138.3262,73.9962
137.4340,73.1040
137.3684,73.0662
137.3028,73.0283
137.2296,73.0087
137.1564,72.9890
135.9703,72.9890
135.8451,72.9890
135.7780,72.9694
135.7323,72.9166
135.7223,72.8474
135.7514,72.7838
135.8154,72.7100
135.8235,72.7015
136.0939,72.4437
136.1028,72.4359
136.3964,72.2050
136.4060,72.1982
136.7203,71.9962
136.7305,71.9903
137.0625,71.8191
137.0733,71.8143
137.4201,71.6754
137.4312,71.6716
137.7896,71.5663
137.8011,71.5635
138.1679,71.4928
138.1796,71.4912
138.5514,71.4556
138.5632,71.4551
138.9368,71.4551
Z" /> 
<path style="fill:#000000; fill-opacity:1.0000; stroke:none;fill-rule:evenodd;"
d="M 142.7425,84.6057
142.7883,84.6585
142.7995,84.7100
142.7995,84.9620
142.7798,85.0290
142.7270,85.0748
142.6755,85.0860
142.4164,85.0860
142.3494,85.0663
142.3090,85.0240
142.3040,85.0152
142.2124,84.9237
142.1789,84.8624
142.1839,84.7927
142.2124,84.7483
142.2507,84.7100
142.3040,84.6568
142.3090,84.6480
142.3596,84.5998
142.4164,84.5860
142.6755,84.5860
Z" /> 
<path style="fill:#000000; fill-opacity:1.0000; stroke:none;fill-rule:evenodd;"
d="M 135.5651,82.5473
135.5858,82.5528
135.5858,82.5528
135.7322,82.5528
135.7322,82.5528
135.7529,82.5473
135.8228,82.5489
135.8806,82.5881
135.9081,82.6523
135.9090,82.6670
135.9090,83.6450
135.8893,83.7120
135.8365,83.7578
135.7674,83.7677
135.7529,83.7647
135.7322,83.7592
135.7322,83.7592
135.5858,83.7592
135.5858,83.7592
135.5651,83.7647
135.4952,83.7631
135.4374,83.7239
135.4099,83.6597
135.4090,83.6450
135.4090,82.6670
135.4287,82.6000
135.4815,82.5542
135.5506,82.5443
Z" /> 
<path style="fill:#000000; fill-opacity:1.0000; stroke:none;fill-rule:evenodd;"
d="M 141.7651,82.5473
141.7858,82.5528
141.7858,82.5528
141.9322,82.5528
141.9322,82.5528
141.9529,82.5473
142.0228,82.5489
142.0806,82.5881
142.1081,82.6523
142.1090,82.6670
142.1090,83.6450
142.0893,83.7120
142.0365,83.7578
141.9674,83.7677
141.9529,83.7647
141.9322,83.7592
141.9322,83.7592
141.7858,83.7592
141.7858,83.7592
141.7651,83.7647
141.6952,83.7631
141.6374,83.7239
141.6099,83.6597
141.6090,83.6450
141.6090,82.6670
141.6287,82.6000
141.6815,82.5542
141.7506,82.5443
Z" /> 
<path style="fill:#000000; fill-opacity:1.0000; stroke:none;fill-rule:evenodd;"
d="M 142.7425,81.2457
142.7883,81.2985
142.7995,81.3500
142.7995,81.6020
142.7798,81.6690
142.7270,81.7148
142.6755,81.7260
142.4164,81.7260
142.3494,81.7063
142.3090,81.6640
142.3040,81.6552
142.2124,81.5637
142.1789,81.5024
142.1839,81.4327
142.2124,81.3883
142.2507,81.3500
142.3040,81.2968
142.3090,81.2880
142.3596,81.2398
142.4164,81.2260
142.6755,81.2260
Z" /> 
<path style="fill:#000000; fill-opacity:1.0000; stroke:none;fill-rule:evenodd;"
d="M 136.0885,74.7621
136.1372,74.8122
136.1510,74.8807
136.1349,74.9320
136.0536,75.0728
136.0536,75.0728
135.9951,75.2528
135.9951,75.2528
135.9908,75.2942
135.9753,75.4411
135.9768,75.4554
135.9643,75.5241
135.9165,75.5751
135.8793,75.5896
135.8642,75.5929
135.8642,75.5929
135.6913,75.6698
135.6913,75.6699
135.5381,75.7811
135.4115,75.9218
135.3168,76.0857
135.3168,76.0857
135.2583,76.2657
135.2583,76.2657
135.2385,76.4540
135.2583,76.6423
135.2583,76.6423
135.3168,76.8223
135.3168,76.8223
135.4115,76.9862
135.5135,77.0995
135.5366,77.1252
135.5669,77.1882
135.5685,77.2082
135.5685,77.8260
135.5685,77.9776
135.5787,78.0158
135.5859,78.0426
135.5843,78.1124
135.5735,78.1367
135.4977,78.2679
135.4818,78.2955
135.4818,78.2955
135.4233,78.4755
135.4233,78.4755
135.4035,78.6638
135.4233,78.8521
135.4233,78.8521
135.4818,79.0321
135.4818,79.0321
135.5765,79.1960
135.7031,79.3367
135.8563,79.4479
135.8563,79.4479
135.8563,79.4480
135.8889,79.4625
135.9421,79.5077
135.9625,79.5746
135.9434,79.6418
135.9190,79.6700
135.9090,79.6786
135.9090,80.2850
135.8893,80.3520
135.8365,80.3978
135.7674,80.4077
135.7529,80.4047
135.7322,80.3992
135.7322,80.3992
135.5858,80.3992
135.5858,80.3992
135.5651,80.4047
135.4952,80.4031
135.4374,80.3639
135.4099,80.2997
135.4090,80.2850
135.4090,79.6786
135.4090,79.6786
135.3546,79.6872
135.3546,79.6872
135.1599,79.7504
134.9776,79.8434
134.8974,79.9016
134.8316,79.9251
134.7635,79.9093
134.7148,79.8592
134.7005,79.8013
134.7005,75.5030
134.7006,75.4971
134.7186,75.1210
134.7197,75.1092
134.7249,75.0728
134.7461,74.9252
134.7752,74.8616
134.8339,74.8239
134.9038,74.8239
134.9418,74.8425
134.9454,74.8451
134.9454,74.8451
135.1183,74.9221
135.1183,74.9221
135.3035,74.9615
135.3035,74.9615
135.4927,74.9615
135.4927,74.9615
135.6779,74.9221
135.8508,74.8451
135.9546,74.7697
136.0204,74.7462
Z" /> 
</g> 
</svg>
