<?xml version="1.0" standalone="no"?>
 <!DOCTYPE svg PUBLIC "-//W3C//DTD SVG 1.1//EN" 
 "http://www.w3.org/Graphics/SVG/1.1/DTD/svg11.dtd"> 
<svg
  xmlns:svg="http://www.w3.org/2000/svg"
  xmlns="http://www.w3.org/2000/svg"
  xmlns:xlink="http://www.w3.org/1999/xlink"
  version="1.1"
  width="297.0022mm" height="210.0072mm" viewBox="0.0000 0.0000 297.0022 210.0072">
<title>SVG Image created as V2_PCB-F_Silkscreen.svg date 2024/12/01 18:59:24 </title>
  <desc>Image generated by PCBNEW </desc>
<g style="fill:#000000; fill-opacity:1.0000;stroke:#000000; stroke-opacity:1.0000;
stroke-linecap:round; stroke-linejoin:round;"
 transform="translate(0 0) scale(1 1)">
</g>
<g style="fill:none; 
stroke:#000000; stroke-width:0.1500; stroke-opacity:1; 
stroke-linecap:round; stroke-linejoin:round;">
<g transform="rotate(-270.000000 138.7602 73.2790)">
<text x="138.7602" y="73.7790"
textLength="2.2500" font-size="1.3333" lengthAdjust="spacingAndGlyphs"
text-anchor="middle" opacity="0" stroke-opacity="0">U1</text>
</g>
<g class="stroked-text"><desc>U1</desc>
<path d="M139.3054 72.5171
L138.4959 72.5171
" />
<path d="M138.4959 72.5171
L138.4006 72.5647
" />
<path d="M138.4006 72.5647
L138.3530 72.6123
" />
<path d="M138.3530 72.6123
L138.3054 72.7076
" />
<path d="M138.3054 72.7076
L138.3054 72.8980
" />
<path d="M138.3054 72.8980
L138.3530 72.9933
" />
<path d="M138.3530 72.9933
L138.4006 73.0409
" />
<path d="M138.4006 73.0409
L138.4959 73.0885
" />
<path d="M138.4959 73.0885
L139.3054 73.0885
" />
<path d="M138.3054 74.0885
L138.3054 73.5171
" />
<path d="M138.3054 73.8028
L139.3054 73.8028
" />
<path d="M139.3054 73.8028
L139.1625 73.7076
" />
<path d="M139.1625 73.7076
L139.0673 73.6123
" />
<path d="M139.0673 73.6123
L139.0197 73.5171
" />
</g><g transform="rotate(-90.000000 134.9740 77.0515)">
<text x="134.9740" y="77.5515"
textLength="2.2024" font-size="1.3333" lengthAdjust="spacingAndGlyphs"
text-anchor="middle" opacity="0" stroke-opacity="0">R2</text>
</g>
<g class="stroked-text"><desc>R2</desc>
<path d="M135.4288 77.2182
L134.9526 77.5515
" />
<path d="M135.4288 77.7896
L134.4288 77.7896
" />
<path d="M134.4288 77.7896
L134.4288 77.4086
" />
<path d="M134.4288 77.4086
L134.4764 77.3134
" />
<path d="M134.4764 77.3134
L134.5241 77.2658
" />
<path d="M134.5241 77.2658
L134.6193 77.2182
" />
<path d="M134.6193 77.2182
L134.7622 77.2182
" />
<path d="M134.7622 77.2182
L134.8574 77.2658
" />
<path d="M134.8574 77.2658
L134.9050 77.3134
" />
<path d="M134.9050 77.3134
L134.9526 77.4086
" />
<path d="M134.9526 77.4086
L134.9526 77.7896
" />
<path d="M134.5241 76.8372
L134.4764 76.7896
" />
<path d="M134.4764 76.7896
L134.4288 76.6944
" />
<path d="M134.4288 76.6944
L134.4288 76.4563
" />
<path d="M134.4288 76.4563
L134.4764 76.3610
" />
<path d="M134.4764 76.3610
L134.5241 76.3134
" />
<path d="M134.5241 76.3134
L134.6193 76.2658
" />
<path d="M134.6193 76.2658
L134.7145 76.2658
" />
<path d="M134.7145 76.2658
L134.8574 76.3134
" />
<path d="M134.8574 76.3134
L135.4288 76.8848
" />
<path d="M135.4288 76.8848
L135.4288 76.2658
" />
</g><g transform="rotate(-90.000000 133.9580 77.0515)">
<text x="133.9580" y="77.5515"
textLength="2.2024" font-size="1.3333" lengthAdjust="spacingAndGlyphs"
text-anchor="middle" opacity="0" stroke-opacity="0">R1</text>
</g>
<g class="stroked-text"><desc>R1</desc>
<path d="M134.4128 77.2182
L133.9366 77.5515
" />
<path d="M134.4128 77.7896
L133.4128 77.7896
" />
<path d="M133.4128 77.7896
L133.4128 77.4086
" />
<path d="M133.4128 77.4086
L133.4604 77.3134
" />
<path d="M133.4604 77.3134
L133.5081 77.2658
" />
<path d="M133.5081 77.2658
L133.6033 77.2182
" />
<path d="M133.6033 77.2182
L133.7462 77.2182
" />
<path d="M133.7462 77.2182
L133.8414 77.2658
" />
<path d="M133.8414 77.2658
L133.8890 77.3134
" />
<path d="M133.8890 77.3134
L133.9366 77.4086
" />
<path d="M133.9366 77.4086
L133.9366 77.7896
" />
<path d="M134.4128 76.2658
L134.4128 76.8372
" />
<path d="M134.4128 76.5515
L133.4128 76.5515
" />
<path d="M133.4128 76.5515
L133.5557 76.6467
" />
<path d="M133.5557 76.6467
L133.6509 76.7420
" />
<path d="M133.6509 76.7420
L133.6985 76.8372
" />
</g><text x="138.7590" y="80.5610"
textLength="1.9643" font-size="1.3333" lengthAdjust="spacingAndGlyphs"
text-anchor="middle" opacity="0" stroke-opacity="0">J8</text>
<g class="stroked-text"><desc>J8</desc>
<path d="M138.4257 79.5158
L138.4257 80.2301
" />
<path d="M138.4257 80.2301
L138.3780 80.3730
" />
<path d="M138.3780 80.3730
L138.2828 80.4682
" />
<path d="M138.2828 80.4682
L138.1400 80.5158
" />
<path d="M138.1400 80.5158
L138.0447 80.5158
" />
<path d="M139.0447 79.9444
L138.9495 79.8968
" />
<path d="M138.9495 79.8968
L138.9019 79.8492
" />
<path d="M138.9019 79.8492
L138.8542 79.7539
" />
<path d="M138.8542 79.7539
L138.8542 79.7063
" />
<path d="M138.8542 79.7063
L138.9019 79.6111
" />
<path d="M138.9019 79.6111
L138.9495 79.5634
" />
<path d="M138.9495 79.5634
L139.0447 79.5158
" />
<path d="M139.0447 79.5158
L139.2352 79.5158
" />
<path d="M139.2352 79.5158
L139.3304 79.5634
" />
<path d="M139.3304 79.5634
L139.3780 79.6111
" />
<path d="M139.3780 79.6111
L139.4257 79.7063
" />
<path d="M139.4257 79.7063
L139.4257 79.7539
" />
<path d="M139.4257 79.7539
L139.3780 79.8492
" />
<path d="M139.3780 79.8492
L139.3304 79.8968
" />
<path d="M139.3304 79.8968
L139.2352 79.9444
" />
<path d="M139.2352 79.9444
L139.0447 79.9444
" />
<path d="M139.0447 79.9444
L138.9495 79.9920
" />
<path d="M138.9495 79.9920
L138.9019 80.0396
" />
<path d="M138.9019 80.0396
L138.8542 80.1349
" />
<path d="M138.8542 80.1349
L138.8542 80.3253
" />
<path d="M138.8542 80.3253
L138.9019 80.4206
" />
<path d="M138.9019 80.4206
L138.9495 80.4682
" />
<path d="M138.9495 80.4682
L139.0447 80.5158
" />
<path d="M139.0447 80.5158
L139.2352 80.5158
" />
<path d="M139.2352 80.5158
L139.3304 80.4682
" />
<path d="M139.3304 80.4682
L139.3780 80.4206
" />
<path d="M139.3780 80.4206
L139.4257 80.3253
" />
<path d="M139.4257 80.3253
L139.4257 80.1349
" />
<path d="M139.4257 80.1349
L139.3780 80.0396
" />
<path d="M139.3780 80.0396
L139.3304 79.9920
" />
<path d="M139.3304 79.9920
L139.2352 79.9444
" />
</g><text x="134.4190" y="80.5610"
textLength="1.0119" font-size="1.3333" lengthAdjust="spacingAndGlyphs"
text-anchor="middle" opacity="0" stroke-opacity="0">*</text>
<g class="stroked-text"><desc>*</desc>
<path d="M134.4190 79.5158
L134.4190 79.7539
" />
<path d="M134.1809 79.6587
L134.4190 79.7539
" />
<path d="M134.4190 79.7539
L134.6571 79.6587
" />
<path d="M134.2761 79.9444
L134.4190 79.7539
" />
<path d="M134.4190 79.7539
L134.5619 79.9444
" />
</g><text x="134.4190" y="80.5610"
textLength="1.0119" font-size="1.3333" lengthAdjust="spacingAndGlyphs"
text-anchor="middle" opacity="0" stroke-opacity="0">*</text>
<g class="stroked-text"><desc>*</desc>
<path d="M134.4190 79.5158
L134.4190 79.7539
" />
<path d="M134.1809 79.6587
L134.4190 79.7539
" />
<path d="M134.4190 79.7539
L134.6571 79.6587
" />
<path d="M134.2761 79.9444
L134.4190 79.7539
" />
<path d="M134.4190 79.7539
L134.5619 79.9444
" />
</g><g transform="rotate(-90.000000 138.9210 76.2675)">
<text x="138.9210" y="76.7675"
textLength="2.2024" font-size="1.3333" lengthAdjust="spacingAndGlyphs"
text-anchor="middle" opacity="0" stroke-opacity="0">C1</text>
</g>
<g class="stroked-text"><desc>C1</desc>
<path d="M139.2806 76.4342
L139.3282 76.4818
" />
<path d="M139.3282 76.4818
L139.3758 76.6246
" />
<path d="M139.3758 76.6246
L139.3758 76.7199
" />
<path d="M139.3758 76.7199
L139.3282 76.8627
" />
<path d="M139.3282 76.8627
L139.2330 76.9580
" />
<path d="M139.2330 76.9580
L139.1377 77.0056
" />
<path d="M139.1377 77.0056
L138.9472 77.0532
" />
<path d="M138.9472 77.0532
L138.8044 77.0532
" />
<path d="M138.8044 77.0532
L138.6139 77.0056
" />
<path d="M138.6139 77.0056
L138.5187 76.9580
" />
<path d="M138.5187 76.9580
L138.4234 76.8627
" />
<path d="M138.4234 76.8627
L138.3758 76.7199
" />
<path d="M138.3758 76.7199
L138.3758 76.6246
" />
<path d="M138.3758 76.6246
L138.4234 76.4818
" />
<path d="M138.4234 76.4818
L138.4711 76.4342
" />
<path d="M139.3758 75.4818
L139.3758 76.0532
" />
<path d="M139.3758 75.7675
L138.3758 75.7675
" />
<path d="M138.3758 75.7675
L138.5187 75.8627
" />
<path d="M138.5187 75.8627
L138.6139 75.9580
" />
<path d="M138.6139 75.9580
L138.6615 76.0532
" />
</g></g>
<g style="fill:none; 
stroke:#000000; stroke-width:0.1524; stroke-opacity:1; 
stroke-linecap:round; stroke-linejoin:round;">
<path d="M137.6299 72.5042
L137.6299 74.0538
" />
<path d="M139.8905 74.0538
L139.8905 72.5042
" />
</g>
<g style="fill:none; 
stroke:#000000; stroke-width:0.1200; stroke-opacity:1; 
stroke-linecap:round; stroke-linejoin:round;">
<path d="M136.5240 77.2191
L136.5240 76.8839
" />
<path d="M135.7640 77.2191
L135.7640 76.8839
" />
<path d="M135.5080 77.2191
L135.5080 76.8839
" />
<path d="M134.7480 77.2191
L134.7480 76.8839
" />
</g>
<g style="fill:none; 
stroke:#000000; stroke-width:0.1524; stroke-opacity:1; 
stroke-linecap:round; stroke-linejoin:round;">
<path d="M142.1880 87.3592
L142.1880 85.9613
" />
<path d="M142.1880 83.7107
L142.1880 83.0807
" />
<path d="M142.1880 79.8713
L142.1880 79.4090
" />
<path d="M142.1880 79.4090
L140.9588 79.4090
" />
<path d="M136.5592 79.4090
L135.3300 79.4090
" />
<path d="M135.3300 87.3592
L142.1880 87.3592
" />
<path d="M135.3300 86.4407
L135.3300 87.3592
" />
<path d="M135.3300 79.4090
L135.3300 79.8713
" />
</g>
<g style="fill:none; 
stroke:#000000; stroke-width:0.1200; stroke-opacity:1; 
stroke-linecap:round; stroke-linejoin:round;">
<path d="M140.4410 76.3833
L140.4410 76.1517
" />
<path d="M139.7210 76.3833
L139.7210 76.1517
" />
</g> 
</svg>
