<?xml version="1.0" standalone="no"?>
 <!DOCTYPE svg PUBLIC "-//W3C//DTD SVG 1.1//EN" 
 "http://www.w3.org/Graphics/SVG/1.1/DTD/svg11.dtd"> 
<svg
  xmlns:svg="http://www.w3.org/2000/svg"
  xmlns="http://www.w3.org/2000/svg"
  xmlns:xlink="http://www.w3.org/1999/xlink"
  version="1.1"
  width="297.0022mm" height="210.0072mm" viewBox="0.0000 0.0000 297.0022 210.0072">
<title>SVG Image created as V2_PCB-F_Cu.svg date 2024/12/01 18:59:24 </title>
  <desc>Image generated by PCBNEW </desc>
<g style="fill:#000000; fill-opacity:1.0000;stroke:#000000; stroke-opacity:1.0000;
stroke-linecap:round; stroke-linejoin:round;"
 transform="translate(0 0) scale(1 1)">
<path style="fill:#000000; fill-opacity:1.0000; stroke:none;fill-rule:evenodd;"
d="M 139.3832,71.5772
139.6372,71.5772
139.6372,72.2884
139.3832,72.2884
Z" /> 
<path style="fill:#000000; fill-opacity:1.0000; stroke:none;fill-rule:evenodd;"
d="M 138.8832,71.5772
139.1372,71.5772
139.1372,72.2884
138.8832,72.2884
Z" /> 
<path style="fill:#000000; fill-opacity:1.0000; stroke:none;fill-rule:evenodd;"
d="M 138.3832,71.5772
138.6372,71.5772
138.6372,72.2884
138.3832,72.2884
Z" /> 
<path style="fill:#000000; fill-opacity:1.0000; stroke:none;fill-rule:evenodd;"
d="M 137.8832,71.5772
138.1372,71.5772
138.1372,72.2884
137.8832,72.2884
Z" /> 
<path style="fill:#000000; fill-opacity:1.0000; stroke:none;fill-rule:evenodd;"
d="M 137.8832,74.2696
138.1372,74.2696
138.1372,74.9808
137.8832,74.9808
Z" /> 
<path style="fill:#000000; fill-opacity:1.0000; stroke:none;fill-rule:evenodd;"
d="M 138.3832,74.2696
138.6372,74.2696
138.6372,74.9808
138.3832,74.9808
Z" /> 
<path style="fill:#000000; fill-opacity:1.0000; stroke:none;fill-rule:evenodd;"
d="M 138.8832,74.2696
139.1372,74.2696
139.1372,74.9808
138.8832,74.9808
Z" /> 
<path style="fill:#000000; fill-opacity:1.0000; stroke:none;fill-rule:evenodd;"
d="M 139.3832,74.2696
139.6372,74.2696
139.6372,74.9808
139.3832,74.9808
Z" /> 
<path style="fill:#000000; fill-opacity:1.0000; stroke:none;fill-rule:evenodd;"
d="M 137.9855,72.4027
139.5349,72.4027
139.5349,74.1553
137.9855,74.1553
Z" /> 
<path style="fill:#000000; fill-opacity:1.0000; stroke:none;fill-rule:evenodd;"
d="M 135.9840,76.8115
135.9228,76.7993
135.8709,76.7646
135.8362,76.7127
135.8240,76.6515
135.8240,76.2565
135.8362,76.1953
135.8709,76.1434
135.9228,76.1087
135.9840,76.0965
136.3040,76.0965
136.3652,76.1087
136.4171,76.1434
136.4518,76.1953
136.4640,76.2565
136.4640,76.6515
136.4518,76.7127
136.4171,76.7646
136.3652,76.7993
136.3040,76.8115
Z" /> 
<path style="fill:#000000; fill-opacity:1.0000; stroke:none;fill-rule:evenodd;"
d="M 135.9840,78.0065
135.9228,77.9943
135.8709,77.9596
135.8362,77.9077
135.8240,77.8465
135.8240,77.4515
135.8362,77.3903
135.8709,77.3384
135.9228,77.3037
135.9840,77.2915
136.3040,77.2915
136.3652,77.3037
136.4171,77.3384
136.4518,77.3903
136.4640,77.4515
136.4640,77.8465
136.4518,77.9077
136.4171,77.9596
136.3652,77.9943
136.3040,78.0065
Z" /> 
<path style="fill:#000000; fill-opacity:1.0000; stroke:none;fill-rule:evenodd;"
d="M 134.9680,76.8115
134.9068,76.7993
134.8549,76.7646
134.8202,76.7127
134.8080,76.6515
134.8080,76.2565
134.8202,76.1953
134.8549,76.1434
134.9068,76.1087
134.9680,76.0965
135.2880,76.0965
135.3492,76.1087
135.4011,76.1434
135.4358,76.1953
135.4480,76.2565
135.4480,76.6515
135.4358,76.7127
135.4011,76.7646
135.3492,76.7993
135.2880,76.8115
Z" /> 
<path style="fill:#000000; fill-opacity:1.0000; stroke:none;fill-rule:evenodd;"
d="M 134.9680,78.0065
134.9068,77.9943
134.8549,77.9596
134.8202,77.9077
134.8080,77.8465
134.8080,77.4515
134.8202,77.3903
134.8549,77.3384
134.9068,77.3037
134.9680,77.2915
135.2880,77.2915
135.3492,77.3037
135.4011,77.3384
135.4358,77.3903
135.4480,77.4515
135.4480,77.8465
135.4358,77.9077
135.4011,77.9596
135.3492,77.9943
135.2880,78.0065
Z" /> 
</g>
<g style="fill:none; 
stroke:#000000; stroke-width:1.6002; stroke-opacity:1; 
stroke-linecap:round; stroke-linejoin:round;">
<path d="M141.8590 85.3567
L141.8590 84.3153
" />
<path d="M141.8590 81.9967
L141.8590 80.9553
" />
<path d="M135.6590 85.3567
L135.6590 84.3153
" />
<path d="M135.6590 81.9967
L135.6590 80.9553
" />
<path style="fill:#000000; fill-opacity:1.0000; stroke:none;fill-rule:evenodd;"
d="M 136.8193,80.5055
136.8193,79.6165
137.0987,79.6165
137.0987,80.5055
Z" /> 
<path style="fill:#000000; fill-opacity:1.0000; stroke:none;fill-rule:evenodd;"
d="M 137.0193,81.8067
137.0193,80.7653
137.2987,80.7653
137.2987,81.8067
Z" /> 
<path style="fill:#000000; fill-opacity:1.0000; stroke:none;fill-rule:evenodd;"
d="M 137.2193,80.5055
137.2193,79.6165
137.4987,79.6165
137.4987,80.5055
Z" /> 
<path style="fill:#000000; fill-opacity:1.0000; stroke:none;fill-rule:evenodd;"
d="M 137.4193,81.8067
137.4193,80.7653
137.6987,80.7653
137.6987,81.8067
Z" /> 
<path style="fill:#000000; fill-opacity:1.0000; stroke:none;fill-rule:evenodd;"
d="M 137.6193,80.5055
137.6193,79.6165
137.8987,79.6165
137.8987,80.5055
Z" /> 
<path style="fill:#000000; fill-opacity:1.0000; stroke:none;fill-rule:evenodd;"
d="M 137.8193,81.8067
137.8193,80.7653
138.0987,80.7653
138.0987,81.8067
Z" /> 
<path style="fill:#000000; fill-opacity:1.0000; stroke:none;fill-rule:evenodd;"
d="M 138.0193,80.5055
138.0193,79.6165
138.2987,79.6165
138.2987,80.5055
Z" /> 
<path style="fill:#000000; fill-opacity:1.0000; stroke:none;fill-rule:evenodd;"
d="M 138.2193,81.8067
138.2193,80.7653
138.4987,80.7653
138.4987,81.8067
Z" /> 
<path style="fill:#000000; fill-opacity:1.0000; stroke:none;fill-rule:evenodd;"
d="M 138.4193,80.5055
138.4193,79.6165
138.6987,79.6165
138.6987,80.5055
Z" /> 
<path style="fill:#000000; fill-opacity:1.0000; stroke:none;fill-rule:evenodd;"
d="M 138.6193,81.8067
138.6193,80.7653
138.8987,80.7653
138.8987,81.8067
Z" /> 
<path style="fill:#000000; fill-opacity:1.0000; stroke:none;fill-rule:evenodd;"
d="M 138.8193,80.5055
138.8193,79.6165
139.0987,79.6165
139.0987,80.5055
Z" /> 
<path style="fill:#000000; fill-opacity:1.0000; stroke:none;fill-rule:evenodd;"
d="M 139.0193,81.8067
139.0193,80.7653
139.2987,80.7653
139.2987,81.8067
Z" /> 
<path style="fill:#000000; fill-opacity:1.0000; stroke:none;fill-rule:evenodd;"
d="M 139.2193,80.5055
139.2193,79.6165
139.4987,79.6165
139.4987,80.5055
Z" /> 
<path style="fill:#000000; fill-opacity:1.0000; stroke:none;fill-rule:evenodd;"
d="M 139.4193,81.8067
139.4193,80.7653
139.6987,80.7653
139.6987,81.8067
Z" /> 
<path style="fill:#000000; fill-opacity:1.0000; stroke:none;fill-rule:evenodd;"
d="M 139.6193,80.5055
139.6193,79.6165
139.8987,79.6165
139.8987,80.5055
Z" /> 
<path style="fill:#000000; fill-opacity:1.0000; stroke:none;fill-rule:evenodd;"
d="M 139.8193,81.8067
139.8193,80.7653
140.0987,80.7653
140.0987,81.8067
Z" /> 
<path style="fill:#000000; fill-opacity:1.0000; stroke:none;fill-rule:evenodd;"
d="M 140.0193,80.5055
140.0193,79.6165
140.2987,79.6165
140.2987,80.5055
Z" /> 
<path style="fill:#000000; fill-opacity:1.0000; stroke:none;fill-rule:evenodd;"
d="M 140.2193,81.8067
140.2193,80.7653
140.4987,80.7653
140.4987,81.8067
Z" /> 
<path style="fill:#000000; fill-opacity:1.0000; stroke:none;fill-rule:evenodd;"
d="M 140.4193,80.5055
140.4193,79.6165
140.6987,79.6165
140.6987,80.5055
Z" /> 
<path style="fill:#000000; fill-opacity:1.0000; stroke:none;fill-rule:evenodd;"
d="M 136.9140,77.8550
136.9330,77.7593
136.9872,77.6782
137.0683,77.6240
137.1640,77.6050
137.6640,77.6050
137.7597,77.6240
137.8408,77.6782
137.8950,77.7593
137.9140,77.8550
137.9140,78.3550
137.8950,78.4507
137.8408,78.5318
137.7597,78.5860
137.6640,78.6050
137.1640,78.6050
137.0683,78.5860
136.9872,78.5318
136.9330,78.4507
136.9140,78.3550
Z" /> 
<path style="fill:#000000; fill-opacity:1.0000; stroke:none;fill-rule:evenodd;"
d="M 138.3110,76.0770
138.3300,75.9813
138.3842,75.9002
138.4653,75.8460
138.5610,75.8270
139.0610,75.8270
139.1567,75.8460
139.2378,75.9002
139.2920,75.9813
139.3110,76.0770
139.3110,76.5770
139.2920,76.6727
139.2378,76.7538
139.1567,76.8080
139.0610,76.8270
138.5610,76.8270
138.4653,76.8080
138.3842,76.7538
138.3300,76.6727
138.3110,76.5770
Z" /> 
<path style="fill:#000000; fill-opacity:1.0000; stroke:none;fill-rule:evenodd;"
d="M 139.5810,77.8550
139.6000,77.7593
139.6542,77.6782
139.7353,77.6240
139.8310,77.6050
140.3310,77.6050
140.4267,77.6240
140.5078,77.6782
140.5620,77.7593
140.5810,77.8550
140.5810,78.3550
140.5620,78.4507
140.5078,78.5318
140.4267,78.5860
140.3310,78.6050
139.8310,78.6050
139.7353,78.5860
139.6542,78.5318
139.6000,78.4507
139.5810,78.3550
Z" /> 
<path style="fill:#000000; fill-opacity:1.0000; stroke:none;fill-rule:evenodd;"
d="M 136.2790,72.6480
136.2980,72.5523
136.3522,72.4712
136.4333,72.4170
136.5290,72.3980
137.0290,72.3980
137.1247,72.4170
137.2058,72.4712
137.2600,72.5523
137.2790,72.6480
137.2790,73.1480
137.2600,73.2437
137.2058,73.3248
137.1247,73.3790
137.0290,73.3980
136.5290,73.3980
136.4333,73.3790
136.3522,73.3248
136.2980,73.2437
136.2790,73.1480
Z" /> 
<path style="fill:#000000; fill-opacity:1.0000; stroke:none;fill-rule:evenodd;"
d="M 135.0090,74.8070
135.0280,74.7113
135.0822,74.6302
135.1633,74.5760
135.2590,74.5570
135.7590,74.5570
135.8547,74.5760
135.9358,74.6302
135.9900,74.7113
136.0090,74.8070
136.0090,75.3070
135.9900,75.4027
135.9358,75.4838
135.8547,75.5380
135.7590,75.5570
135.2590,75.5570
135.1633,75.5380
135.0822,75.4838
135.0280,75.4027
135.0090,75.3070
Z" /> 
<path style="fill:#000000; fill-opacity:1.0000; stroke:none;fill-rule:evenodd;"
d="M 140.2160,72.6480
140.2350,72.5523
140.2892,72.4712
140.3703,72.4170
140.4660,72.3980
140.9660,72.3980
141.0617,72.4170
141.1428,72.4712
141.1970,72.5523
141.2160,72.6480
141.2160,73.1480
141.1970,73.2437
141.1428,73.3248
141.0617,73.3790
140.9660,73.3980
140.4660,73.3980
140.3703,73.3790
140.2892,73.3248
140.2350,73.2437
140.2160,73.1480
Z" /> 
<path style="fill:#000000; fill-opacity:1.0000; stroke:none;fill-rule:evenodd;"
d="M 141.4860,74.8070
141.5050,74.7113
141.5592,74.6302
141.6403,74.5760
141.7360,74.5570
142.2360,74.5570
142.3317,74.5760
142.4128,74.6302
142.4670,74.7113
142.4860,74.8070
142.4860,75.3070
142.4670,75.4027
142.4128,75.4838
142.3317,75.5380
142.2360,75.5570
141.7360,75.5570
141.6403,75.5380
141.5592,75.4838
141.5050,75.4027
141.4860,75.3070
Z" /> 
<path style="fill:#000000; fill-opacity:1.0000; stroke:none;fill-rule:evenodd;"
d="M 139.9260,76.0675
139.8667,76.0557
139.8164,76.0221
139.7828,75.9718
139.7710,75.9125
139.7710,75.4875
139.7828,75.4282
139.8164,75.3779
139.8667,75.3443
139.9260,75.3325
140.2360,75.3325
140.2953,75.3443
140.3456,75.3779
140.3792,75.4282
140.3910,75.4875
140.3910,75.9125
140.3792,75.9718
140.3456,76.0221
140.2953,76.0557
140.2360,76.0675
Z" /> 
<path style="fill:#000000; fill-opacity:1.0000; stroke:none;fill-rule:evenodd;"
d="M 139.9260,77.2025
139.8667,77.1907
139.8164,77.1571
139.7828,77.1068
139.7710,77.0475
139.7710,76.6225
139.7828,76.5632
139.8164,76.5129
139.8667,76.4793
139.9260,76.4675
140.2360,76.4675
140.2953,76.4793
140.3456,76.5129
140.3792,76.5632
140.3910,76.6225
140.3910,77.0475
140.3792,77.1068
140.3456,77.1571
140.2953,77.1907
140.2360,77.2025
Z" /> 
</g>
<g style="fill:#000000; fill-opacity:1.0000; stroke:none;">
<circle cx="141.8336" cy="73.7870" r="0.4000" /> 
</g>
<g style="fill:#000000; fill-opacity:1.0000; stroke:none;">
<circle cx="141.1986" cy="76.7334" r="0.4000" /> 
</g>
<g style="fill:#000000; fill-opacity:1.0000; stroke:none;">
<circle cx="136.1440" cy="76.4540" r="0.4000" /> 
</g>
<g style="fill:#000000; fill-opacity:1.0000; stroke:none;">
<circle cx="136.3090" cy="78.6638" r="0.4000" /> 
</g>
<g style="fill:#000000; fill-opacity:1.0000; stroke:none;">
<circle cx="138.4300" cy="83.0326" r="0.4000" /> 
</g>
<g style="fill:#000000; fill-opacity:1.0000; stroke:none;">
<circle cx="135.3981" cy="74.0610" r="0.4000" /> 
</g>
<g style="fill:#000000; fill-opacity:1.0000; stroke:none;">
<circle cx="136.8808" cy="75.4411" r="0.4000" /> 
</g>
<g style="fill:#000000; fill-opacity:1.0000; stroke:none;">
<circle cx="136.9340" cy="82.4764" r="0.4000" /> 
</g>
<g style="fill:none; 
stroke:#000000; stroke-width:0.1500; stroke-opacity:1; 
stroke-linecap:round; stroke-linejoin:round;">
<path d="M140.9446 72.8980
L141.8336 73.7870
" />
<path d="M140.7160 72.8980
L140.9446 72.8980
" />
<path d="M141.0970 76.8350
L141.1986 76.7334
" />
<path d="M140.0810 76.8350
L141.0970 76.8350
" />
<path d="M136.2896 82.8734
L136.2896 81.7355
" />
<path d="M136.8806 83.4644
L136.2896 82.8734
" />
<path d="M136.8806 83.4644
L136.6603 83.6847
" />
<path d="M137.5029 82.8421
L136.8806 83.4644
" />
<path d="M139.0422 84.5286
L139.3495 84.8360
" />
<path d="M137.5029 82.9894
L139.0422 84.5286
" />
<path d="M139.0422 84.5286
L141.2284 82.3424
" />
<path d="M141.2284 82.3424
L141.2284 81.7355
" />
<path d="M139.3495 84.8360
L141.4879 84.8360
" />
<path d="M137.5590 82.7860
L137.5029 82.8421
" />
<path d="M137.5029 82.8421
L137.5029 82.9894
" />
<path d="M135.1280 78.5197
L135.1280 77.6490
" />
<path d="M136.6693 80.0610
L135.1280 78.5197
" />
<path d="M136.9590 80.0610
L136.6693 80.0610
" />
<path d="M137.3590 79.4268
L137.3590 80.0610
" />
<path d="M136.3090 78.6638
L136.5960 78.6638
" />
<path d="M136.5960 78.6638
L137.3590 79.4268
" />
<path d="M138.9590 79.2270
L140.0810 78.1050
" />
<path d="M138.9590 80.0610
L138.9590 79.2270
" />
<path d="M140.1590 79.4268
L140.1590 80.0610
" />
<path d="M141.9860 77.5998
L140.1590 79.4268
" />
<path d="M141.9860 75.0570
L141.9860 77.5998
" />
<path d="M136.7518 76.4540
L136.1440 76.4540
" />
<path d="M138.0000 75.2058
L136.7518 76.4540
" />
<path d="M138.5102 75.1308
L138.4352 75.2058
" />
<path d="M138.5102 74.6252
L138.5102 75.1308
" />
<path d="M138.4352 75.2058
L138.0000 75.2058
" />
<path d="M137.1943 75.4411
L138.0102 74.6252
" />
<path d="M136.5399 75.7820
L135.8000 75.7820
" />
<path d="M136.8808 75.4411
L137.1943 75.4411
" />
<path d="M136.8808 75.4411
L136.5399 75.7820
" />
<path d="M135.8000 75.7820
L135.1280 76.4540
" />
<path d="M138.3573 75.6020
L139.9830 75.6020
" />
<path d="M138.0860 75.8733
L138.3573 75.6020
" />
<path d="M138.0860 76.3662
L138.0860 75.8733
" />
<path d="M139.9830 75.6020
L140.0810 75.7000
" />
<path d="M137.4140 77.0382
L138.0860 76.3662
" />
<path d="M137.4140 78.1050
L137.4140 77.0382
" />
<path d="M139.5943 81.3213
L139.5590 81.2860
" />
<path d="M138.4300 83.0326
L138.7094 83.0326
" />
<path d="M138.7094 83.0326
L139.5943 82.1477
" />
<path d="M139.5943 82.1477
L139.5943 81.3213
" />
<path d="M135.5090 74.1719
L135.3981 74.0610
" />
<path d="M135.5090 75.0570
L135.5090 74.1719
" />
<path d="M137.1590 82.2514
L136.9340 82.4764
" />
<path d="M137.1590 81.2860
L137.1590 82.2514
" />
<path d="M135.3978 83.6847
L135.0284 84.0541
" />
<path d="M136.6603 83.6847
L135.3978 83.6847
" />
<path d="M137.5590 81.2860
L137.5590 82.7860
" />
<path d="M138.5102 72.6480
L138.5102 71.9328
" />
<path d="M138.7602 72.8980
L138.5102 72.6480
" />
<path d="M138.7602 73.2790
L138.7602 72.8980
" />
<path d="M139.0102 73.5290
L139.0102 74.6252
" />
<path d="M138.7602 73.2790
L139.0102 73.5290
" />
<path d="M139.7508 71.9328
L140.7160 72.8980
" />
<path d="M139.5102 71.9328
L139.7508 71.9328
" />
<path d="M139.0102 71.9328
L139.5102 71.9328
" />
<path d="M138.5102 71.9328
L139.0102 71.9328
" />
<path d="M138.0102 71.9328
L138.5102 71.9328
" />
<path d="M137.0450 72.8980
L138.0102 71.9328
" />
<path d="M136.7790 72.8980
L137.0450 72.8980
" />
<path d="M139.5730 76.3270
L140.0810 76.8350
" />
<path d="M138.8110 76.3270
L139.5730 76.3270
" />
<path d="M139.9465 74.6252
L139.5102 74.6252
" />
<path d="M140.0810 74.7597
L139.9465 74.6252
" />
<path d="M140.0810 75.7000
L140.0810 74.7597
" />
<path d="M136.9580 77.6490
L137.4140 78.1050
" />
<path d="M136.1440 77.6490
L136.9580 77.6490
" />
<path d="M135.1280 77.6490
L136.1440 77.6490
" />
</g> 
</svg>
