%TF.GenerationSoftware,KiCad,Pcbnew,8.0.6*%
%TF.CreationDate,2024-12-01T16:56:04-05:00*%
%TF.ProjectId,V2_PCB,56325f50-4342-42e6-9b69-6361645f7063,rev?*%
%TF.SameCoordinates,Original*%
%TF.FileFunction,Copper,L1,Top*%
%TF.FilePolarity,Positive*%
%FSLAX46Y46*%
G04 Gerber Fmt 4.6, Leading zero omitted, Abs format (unit mm)*
G04 Created by KiCad (PCBNEW 8.0.6) date 2024-12-01 16:56:04*
%MOMM*%
%LPD*%
G01*
G04 APERTURE LIST*
G04 Aperture macros list*
%AMRoundRect*
0 Rectangle with rounded corners*
0 $1 Rounding radius*
0 $2 $3 $4 $5 $6 $7 $8 $9 X,Y pos of 4 corners*
0 Add a 4 corners polygon primitive as box body*
4,1,4,$2,$3,$4,$5,$6,$7,$8,$9,$2,$3,0*
0 Add four circle primitives for the rounded corners*
1,1,$1+$1,$2,$3*
1,1,$1+$1,$4,$5*
1,1,$1+$1,$6,$7*
1,1,$1+$1,$8,$9*
0 Add four rect primitives between the rounded corners*
20,1,$1+$1,$2,$3,$4,$5,0*
20,1,$1+$1,$4,$5,$6,$7,0*
20,1,$1+$1,$6,$7,$8,$9,0*
20,1,$1+$1,$8,$9,$2,$3,0*%
G04 Aperture macros list end*
%TA.AperFunction,SMDPad,CuDef*%
%ADD10R,0.254000X0.711200*%
%TD*%
%TA.AperFunction,SMDPad,CuDef*%
%ADD11R,1.549400X1.752600*%
%TD*%
%TA.AperFunction,SMDPad,CuDef*%
%ADD12RoundRect,0.160000X0.160000X-0.197500X0.160000X0.197500X-0.160000X0.197500X-0.160000X-0.197500X0*%
%TD*%
%TA.AperFunction,ComponentPad*%
%ADD13O,1.600200X2.641600*%
%TD*%
%TA.AperFunction,SMDPad,CuDef*%
%ADD14R,0.279400X0.889000*%
%TD*%
%TA.AperFunction,SMDPad,CuDef*%
%ADD15R,0.279400X1.041400*%
%TD*%
%TA.AperFunction,SMDPad,CuDef*%
%ADD16RoundRect,0.250000X-0.250000X-0.250000X0.250000X-0.250000X0.250000X0.250000X-0.250000X0.250000X0*%
%TD*%
%TA.AperFunction,SMDPad,CuDef*%
%ADD17RoundRect,0.155000X0.155000X-0.212500X0.155000X0.212500X-0.155000X0.212500X-0.155000X-0.212500X0*%
%TD*%
%TA.AperFunction,ViaPad*%
%ADD18C,0.800000*%
%TD*%
%TA.AperFunction,Conductor*%
%ADD19C,0.150000*%
%TD*%
G04 APERTURE END LIST*
D10*
%TO.P,U1,1,A0*%
%TO.N,GND*%
X139510201Y-71932800D03*
%TO.P,U1,2,A1*%
X139010200Y-71932800D03*
%TO.P,U1,3,A2*%
X138510200Y-71932800D03*
%TO.P,U1,4,GND*%
X138010199Y-71932800D03*
%TO.P,U1,5,SDA*%
%TO.N,/SDA*%
X138010199Y-74625200D03*
%TO.P,U1,6,SCL*%
%TO.N,/SCL*%
X138510200Y-74625200D03*
%TO.P,U1,7,WP*%
%TO.N,GND*%
X139010200Y-74625200D03*
%TO.P,U1,8,VCC*%
%TO.N,+3.3V*%
X139510201Y-74625200D03*
D11*
%TO.P,U1,9,EP*%
%TO.N,GND*%
X138760200Y-73279000D03*
%TD*%
D12*
%TO.P,R2,2*%
%TO.N,/SCL*%
X136144000Y-76454000D03*
%TO.P,R2,1*%
%TO.N,+3.3V*%
X136144000Y-77649000D03*
%TD*%
%TO.P,R1,2*%
%TO.N,/SDA*%
X135128000Y-76454000D03*
%TO.P,R1,1*%
%TO.N,+3.3V*%
X135128000Y-77649000D03*
%TD*%
D13*
%TO.P,J8,SH,SH*%
%TO.N,GND*%
X141859000Y-84836000D03*
X141859000Y-81476000D03*
X135659000Y-84836000D03*
X135659000Y-81476000D03*
D14*
%TO.P,J8,19,+5V*%
%TO.N,+3.3V*%
X136959001Y-80061000D03*
D15*
%TO.P,J8,18,SDA*%
%TO.N,/SDA*%
X137159001Y-81285999D03*
D14*
%TO.P,J8,17,SCL*%
%TO.N,/SCL*%
X137359000Y-80061000D03*
D15*
%TO.P,J8,16,GND*%
%TO.N,GND*%
X137559000Y-81285999D03*
D14*
%TO.P,J8,15,CEC*%
%TO.N,unconnected-(J8-CEC-Pad15)*%
X137758999Y-80061000D03*
D15*
%TO.P,J8,14,CK-*%
%TO.N,unconnected-(J8-CK--Pad14)*%
X137958999Y-81285999D03*
D14*
%TO.P,J8,13,CKS*%
%TO.N,unconnected-(J8-CKS-Pad13)*%
X138158999Y-80061000D03*
D15*
%TO.P,J8,12,CK+*%
%TO.N,unconnected-(J8-CK+-Pad12)*%
X138359001Y-81285999D03*
D14*
%TO.P,J8,11,D0-*%
%TO.N,unconnected-(J8-D0--Pad11)*%
X138559000Y-80061000D03*
D15*
%TO.P,J8,10,D0S*%
%TO.N,unconnected-(J8-D0S-Pad10)*%
X138759000Y-81285999D03*
D14*
%TO.P,J8,9,D0+*%
%TO.N,Net-(J5-Pin_1)*%
X138959000Y-80061000D03*
D15*
%TO.P,J8,8,D1-*%
%TO.N,unconnected-(J8-D1--Pad8)*%
X139158999Y-81285999D03*
D14*
%TO.P,J8,7,D1S*%
%TO.N,unconnected-(J8-D1S-Pad7)*%
X139358999Y-80061000D03*
D15*
%TO.P,J8,6,D1+*%
%TO.N,Net-(J3-Pin_1)*%
X139558998Y-81285999D03*
D14*
%TO.P,J8,5,D2-*%
%TO.N,unconnected-(J8-D2--Pad5)*%
X139759001Y-80061000D03*
D15*
%TO.P,J8,4,D2S*%
%TO.N,unconnected-(J8-D2S-Pad4)*%
X139959000Y-81285999D03*
D14*
%TO.P,J8,3,D2+*%
%TO.N,Net-(J1-Pin_1)*%
X140159000Y-80061000D03*
D15*
%TO.P,J8,2,UTILITY/HEAC+*%
%TO.N,unconnected-(J8-UTILITY{slash}HEAC+-Pad2)*%
X140358999Y-81285999D03*
D14*
%TO.P,J8,1,HPD/HEAC-*%
%TO.N,unconnected-(J8-HPD{slash}HEAC--Pad1)*%
X140558999Y-80061000D03*
%TD*%
D16*
%TO.P,J7,1,Pin_1*%
%TO.N,+3.3V*%
X137414000Y-78105000D03*
%TD*%
%TO.P,J6,1,Pin_1*%
%TO.N,GND*%
X138811000Y-76327000D03*
%TD*%
%TO.P,J5,1,Pin_1*%
%TO.N,Net-(J5-Pin_1)*%
X140081000Y-78105000D03*
%TD*%
%TO.P,J4,1,Pin_1*%
%TO.N,GND*%
X136779000Y-72898000D03*
%TD*%
%TO.P,J3,1,Pin_1*%
%TO.N,Net-(J3-Pin_1)*%
X135509000Y-75057000D03*
%TD*%
%TO.P,J2,1,Pin_1*%
%TO.N,GND*%
X140716000Y-72898000D03*
%TD*%
%TO.P,J1,1,Pin_1*%
%TO.N,Net-(J1-Pin_1)*%
X141986000Y-75057000D03*
%TD*%
D17*
%TO.P,C1,2*%
%TO.N,+3.3V*%
X140081000Y-75700000D03*
%TO.P,C1,1*%
%TO.N,GND*%
X140081000Y-76835000D03*
%TD*%
D18*
%TO.N,GND*%
X141833600Y-73787000D03*
X141198600Y-76733400D03*
%TO.N,/SCL*%
X136144000Y-76454000D03*
X136309000Y-78663800D03*
%TO.N,Net-(J3-Pin_1)*%
X138430000Y-83032600D03*
X135398101Y-74060982D03*
%TO.N,/SDA*%
X136880793Y-75441106D03*
X136934000Y-82476358D03*
%TD*%
D19*
%TO.N,GND*%
X140944600Y-72898000D02*
X141833600Y-73787000D01*
X140716000Y-72898000D02*
X140944600Y-72898000D01*
X141097000Y-76835000D02*
X141198600Y-76733400D01*
X140081000Y-76835000D02*
X141097000Y-76835000D01*
X136289600Y-82873400D02*
X136289600Y-81735497D01*
X136880600Y-83464400D02*
X136289600Y-82873400D01*
X136880600Y-83464400D02*
X136660300Y-83684700D01*
X137502900Y-82842100D02*
X136880600Y-83464400D01*
X139042158Y-84528642D02*
X139349516Y-84836000D01*
X137502900Y-82989384D02*
X139042158Y-84528642D01*
X139042158Y-84528642D02*
X141228400Y-82342400D01*
X141228400Y-82342400D02*
X141228400Y-81735497D01*
X139349516Y-84836000D02*
X141487897Y-84836000D01*
X137559000Y-82786000D02*
X137502900Y-82842100D01*
X137502900Y-82842100D02*
X137502900Y-82989384D01*
%TO.N,+3.3V*%
X135128000Y-78519699D02*
X135128000Y-77649000D01*
X136669301Y-80061000D02*
X135128000Y-78519699D01*
X136959001Y-80061000D02*
X136669301Y-80061000D01*
%TO.N,/SCL*%
X137359000Y-79426799D02*
X137359000Y-80061000D01*
X136309000Y-78663800D02*
X136596001Y-78663800D01*
X136596001Y-78663800D02*
X137359000Y-79426799D01*
%TO.N,Net-(J5-Pin_1)*%
X138959000Y-79227000D02*
X140081000Y-78105000D01*
X138959000Y-80061000D02*
X138959000Y-79227000D01*
%TO.N,Net-(J1-Pin_1)*%
X140159000Y-79426799D02*
X140159000Y-80061000D01*
X141986000Y-77599799D02*
X140159000Y-79426799D01*
X141986000Y-75057000D02*
X141986000Y-77599799D01*
%TO.N,/SCL*%
X136751783Y-76454000D02*
X136144000Y-76454000D01*
X137999983Y-75205800D02*
X136751783Y-76454000D01*
X138510200Y-75130800D02*
X138435200Y-75205800D01*
X138510200Y-74625200D02*
X138510200Y-75130800D01*
X138435200Y-75205800D02*
X137999983Y-75205800D01*
%TO.N,/SDA*%
X137194293Y-75441106D02*
X138010199Y-74625200D01*
X136539899Y-75782000D02*
X135800000Y-75782000D01*
X136880793Y-75441106D02*
X137194293Y-75441106D01*
X136880793Y-75441106D02*
X136539899Y-75782000D01*
X135800000Y-75782000D02*
X135128000Y-76454000D01*
%TO.N,+3.3V*%
X138357322Y-75602000D02*
X139983000Y-75602000D01*
X138086000Y-75873322D02*
X138357322Y-75602000D01*
X138086000Y-76366200D02*
X138086000Y-75873322D01*
X139983000Y-75602000D02*
X140081000Y-75700000D01*
X137414000Y-77038200D02*
X138086000Y-76366200D01*
X137414000Y-78105000D02*
X137414000Y-77038200D01*
%TO.N,Net-(J3-Pin_1)*%
X139594300Y-81321301D02*
X139558998Y-81285999D01*
X138430000Y-83032600D02*
X138709400Y-83032600D01*
X138709400Y-83032600D02*
X139594300Y-82147700D01*
X139594300Y-82147700D02*
X139594300Y-81321301D01*
X135509000Y-74171881D02*
X135398101Y-74060982D01*
X135509000Y-75057000D02*
X135509000Y-74171881D01*
%TO.N,/SDA*%
X137159001Y-82251357D02*
X136934000Y-82476358D01*
X137159001Y-81285999D02*
X137159001Y-82251357D01*
%TO.N,GND*%
X135397797Y-83684700D02*
X135028400Y-84054097D01*
X136660300Y-83684700D02*
X135397797Y-83684700D01*
X137559000Y-81285999D02*
X137559000Y-82786000D01*
X138510200Y-72648000D02*
X138510200Y-71932800D01*
X138760200Y-72898000D02*
X138510200Y-72648000D01*
X138760200Y-73279000D02*
X138760200Y-72898000D01*
X139010200Y-73529000D02*
X139010200Y-74625200D01*
X138760200Y-73279000D02*
X139010200Y-73529000D01*
X139750800Y-71932800D02*
X140716000Y-72898000D01*
X139510201Y-71932800D02*
X139750800Y-71932800D01*
X139010200Y-71932800D02*
X139510201Y-71932800D01*
X138510200Y-71932800D02*
X139010200Y-71932800D01*
X138010199Y-71932800D02*
X138510200Y-71932800D01*
X137044999Y-72898000D02*
X138010199Y-71932800D01*
X136779000Y-72898000D02*
X137044999Y-72898000D01*
X139573000Y-76327000D02*
X140081000Y-76835000D01*
X138811000Y-76327000D02*
X139573000Y-76327000D01*
%TO.N,+3.3V*%
X139946488Y-74625200D02*
X139510201Y-74625200D01*
X140081000Y-74759712D02*
X139946488Y-74625200D01*
X140081000Y-75700000D02*
X140081000Y-74759712D01*
X136958000Y-77649000D02*
X137414000Y-78105000D01*
X136144000Y-77649000D02*
X136958000Y-77649000D01*
X135128000Y-77649000D02*
X136144000Y-77649000D01*
%TD*%
M02*
