<?xml version="1.0" standalone="no"?>
 <!DOCTYPE svg PUBLIC "-//W3C//DTD SVG 1.1//EN" 
 "http://www.w3.org/Graphics/SVG/1.1/DTD/svg11.dtd"> 
<svg
  xmlns:svg="http://www.w3.org/2000/svg"
  xmlns="http://www.w3.org/2000/svg"
  xmlns:xlink="http://www.w3.org/1999/xlink"
  version="1.1"
  width="297.0022mm" height="210.0072mm" viewBox="0.0000 0.0000 297.0022 210.0072">
<title>SVG Image created as V2_PCB-F_Paste.svg date 2024/12/01 18:59:24 </title>
  <desc>Image generated by PCBNEW </desc>
<g style="fill:#000000; fill-opacity:1.0000;stroke:#000000; stroke-opacity:1.0000;
stroke-linecap:round; stroke-linejoin:round;"
 transform="translate(0 0) scale(1 1)">
<path style="fill:#000000; fill-opacity:1.0000; stroke:none;fill-rule:evenodd;"
d="M 139.3832,71.5772
139.6372,71.5772
139.6372,72.2884
139.3832,72.2884
Z" /> 
<path style="fill:#000000; fill-opacity:1.0000; stroke:none;fill-rule:evenodd;"
d="M 138.8832,71.5772
139.1372,71.5772
139.1372,72.2884
138.8832,72.2884
Z" /> 
<path style="fill:#000000; fill-opacity:1.0000; stroke:none;fill-rule:evenodd;"
d="M 138.3832,71.5772
138.6372,71.5772
138.6372,72.2884
138.3832,72.2884
Z" /> 
<path style="fill:#000000; fill-opacity:1.0000; stroke:none;fill-rule:evenodd;"
d="M 137.8832,71.5772
138.1372,71.5772
138.1372,72.2884
137.8832,72.2884
Z" /> 
<path style="fill:#000000; fill-opacity:1.0000; stroke:none;fill-rule:evenodd;"
d="M 137.8832,74.2696
138.1372,74.2696
138.1372,74.9808
137.8832,74.9808
Z" /> 
<path style="fill:#000000; fill-opacity:1.0000; stroke:none;fill-rule:evenodd;"
d="M 138.3832,74.2696
138.6372,74.2696
138.6372,74.9808
138.3832,74.9808
Z" /> 
<path style="fill:#000000; fill-opacity:1.0000; stroke:none;fill-rule:evenodd;"
d="M 138.8832,74.2696
139.1372,74.2696
139.1372,74.9808
138.8832,74.9808
Z" /> 
<path style="fill:#000000; fill-opacity:1.0000; stroke:none;fill-rule:evenodd;"
d="M 139.3832,74.2696
139.6372,74.2696
139.6372,74.9808
139.3832,74.9808
Z" /> 
<path style="fill:#000000; fill-opacity:1.0000; stroke:none;fill-rule:evenodd;"
d="M 137.9855,72.4027
139.5349,72.4027
139.5349,74.1553
137.9855,74.1553
Z" /> 
<path style="fill:#000000; fill-opacity:1.0000; stroke:none;fill-rule:evenodd;"
d="M 135.9840,76.8115
135.9228,76.7993
135.8709,76.7646
135.8362,76.7127
135.8240,76.6515
135.8240,76.2565
135.8362,76.1953
135.8709,76.1434
135.9228,76.1087
135.9840,76.0965
136.3040,76.0965
136.3652,76.1087
136.4171,76.1434
136.4518,76.1953
136.4640,76.2565
136.4640,76.6515
136.4518,76.7127
136.4171,76.7646
136.3652,76.7993
136.3040,76.8115
Z" /> 
<path style="fill:#000000; fill-opacity:1.0000; stroke:none;fill-rule:evenodd;"
d="M 135.9840,78.0065
135.9228,77.9943
135.8709,77.9596
135.8362,77.9077
135.8240,77.8465
135.8240,77.4515
135.8362,77.3903
135.8709,77.3384
135.9228,77.3037
135.9840,77.2915
136.3040,77.2915
136.3652,77.3037
136.4171,77.3384
136.4518,77.3903
136.4640,77.4515
136.4640,77.8465
136.4518,77.9077
136.4171,77.9596
136.3652,77.9943
136.3040,78.0065
Z" /> 
<path style="fill:#000000; fill-opacity:1.0000; stroke:none;fill-rule:evenodd;"
d="M 134.9680,76.8115
134.9068,76.7993
134.8549,76.7646
134.8202,76.7127
134.8080,76.6515
134.8080,76.2565
134.8202,76.1953
134.8549,76.1434
134.9068,76.1087
134.9680,76.0965
135.2880,76.0965
135.3492,76.1087
135.4011,76.1434
135.4358,76.1953
135.4480,76.2565
135.4480,76.6515
135.4358,76.7127
135.4011,76.7646
135.3492,76.7993
135.2880,76.8115
Z" /> 
<path style="fill:#000000; fill-opacity:1.0000; stroke:none;fill-rule:evenodd;"
d="M 134.9680,78.0065
134.9068,77.9943
134.8549,77.9596
134.8202,77.9077
134.8080,77.8465
134.8080,77.4515
134.8202,77.3903
134.8549,77.3384
134.9068,77.3037
134.9680,77.2915
135.2880,77.2915
135.3492,77.3037
135.4011,77.3384
135.4358,77.3903
135.4480,77.4515
135.4480,77.8465
135.4358,77.9077
135.4011,77.9596
135.3492,77.9943
135.2880,78.0065
Z" /> 
<path style="fill:#000000; fill-opacity:1.0000; stroke:none;fill-rule:evenodd;"
d="M 136.8193,80.5055
136.8193,79.6165
137.0987,79.6165
137.0987,80.5055
Z" /> 
<path style="fill:#000000; fill-opacity:1.0000; stroke:none;fill-rule:evenodd;"
d="M 137.0193,81.8067
137.0193,80.7653
137.2987,80.7653
137.2987,81.8067
Z" /> 
<path style="fill:#000000; fill-opacity:1.0000; stroke:none;fill-rule:evenodd;"
d="M 137.2193,80.5055
137.2193,79.6165
137.4987,79.6165
137.4987,80.5055
Z" /> 
<path style="fill:#000000; fill-opacity:1.0000; stroke:none;fill-rule:evenodd;"
d="M 137.4193,81.8067
137.4193,80.7653
137.6987,80.7653
137.6987,81.8067
Z" /> 
<path style="fill:#000000; fill-opacity:1.0000; stroke:none;fill-rule:evenodd;"
d="M 137.6193,80.5055
137.6193,79.6165
137.8987,79.6165
137.8987,80.5055
Z" /> 
<path style="fill:#000000; fill-opacity:1.0000; stroke:none;fill-rule:evenodd;"
d="M 137.8193,81.8067
137.8193,80.7653
138.0987,80.7653
138.0987,81.8067
Z" /> 
<path style="fill:#000000; fill-opacity:1.0000; stroke:none;fill-rule:evenodd;"
d="M 138.0193,80.5055
138.0193,79.6165
138.2987,79.6165
138.2987,80.5055
Z" /> 
<path style="fill:#000000; fill-opacity:1.0000; stroke:none;fill-rule:evenodd;"
d="M 138.2193,81.8067
138.2193,80.7653
138.4987,80.7653
138.4987,81.8067
Z" /> 
<path style="fill:#000000; fill-opacity:1.0000; stroke:none;fill-rule:evenodd;"
d="M 138.4193,80.5055
138.4193,79.6165
138.6987,79.6165
138.6987,80.5055
Z" /> 
<path style="fill:#000000; fill-opacity:1.0000; stroke:none;fill-rule:evenodd;"
d="M 138.6193,81.8067
138.6193,80.7653
138.8987,80.7653
138.8987,81.8067
Z" /> 
<path style="fill:#000000; fill-opacity:1.0000; stroke:none;fill-rule:evenodd;"
d="M 138.8193,80.5055
138.8193,79.6165
139.0987,79.6165
139.0987,80.5055
Z" /> 
<path style="fill:#000000; fill-opacity:1.0000; stroke:none;fill-rule:evenodd;"
d="M 139.0193,81.8067
139.0193,80.7653
139.2987,80.7653
139.2987,81.8067
Z" /> 
<path style="fill:#000000; fill-opacity:1.0000; stroke:none;fill-rule:evenodd;"
d="M 139.2193,80.5055
139.2193,79.6165
139.4987,79.6165
139.4987,80.5055
Z" /> 
<path style="fill:#000000; fill-opacity:1.0000; stroke:none;fill-rule:evenodd;"
d="M 139.4193,81.8067
139.4193,80.7653
139.6987,80.7653
139.6987,81.8067
Z" /> 
<path style="fill:#000000; fill-opacity:1.0000; stroke:none;fill-rule:evenodd;"
d="M 139.6193,80.5055
139.6193,79.6165
139.8987,79.6165
139.8987,80.5055
Z" /> 
<path style="fill:#000000; fill-opacity:1.0000; stroke:none;fill-rule:evenodd;"
d="M 139.8193,81.8067
139.8193,80.7653
140.0987,80.7653
140.0987,81.8067
Z" /> 
<path style="fill:#000000; fill-opacity:1.0000; stroke:none;fill-rule:evenodd;"
d="M 140.0193,80.5055
140.0193,79.6165
140.2987,79.6165
140.2987,80.5055
Z" /> 
<path style="fill:#000000; fill-opacity:1.0000; stroke:none;fill-rule:evenodd;"
d="M 140.2193,81.8067
140.2193,80.7653
140.4987,80.7653
140.4987,81.8067
Z" /> 
<path style="fill:#000000; fill-opacity:1.0000; stroke:none;fill-rule:evenodd;"
d="M 140.4193,80.5055
140.4193,79.6165
140.6987,79.6165
140.6987,80.5055
Z" /> 
<path style="fill:#000000; fill-opacity:1.0000; stroke:none;fill-rule:evenodd;"
d="M 139.9260,76.0675
139.8667,76.0557
139.8164,76.0221
139.7828,75.9718
139.7710,75.9125
139.7710,75.4875
139.7828,75.4282
139.8164,75.3779
139.8667,75.3443
139.9260,75.3325
140.2360,75.3325
140.2953,75.3443
140.3456,75.3779
140.3792,75.4282
140.3910,75.4875
140.3910,75.9125
140.3792,75.9718
140.3456,76.0221
140.2953,76.0557
140.2360,76.0675
Z" /> 
<path style="fill:#000000; fill-opacity:1.0000; stroke:none;fill-rule:evenodd;"
d="M 139.9260,77.2025
139.8667,77.1907
139.8164,77.1571
139.7828,77.1068
139.7710,77.0475
139.7710,76.6225
139.7828,76.5632
139.8164,76.5129
139.8667,76.4793
139.9260,76.4675
140.2360,76.4675
140.2953,76.4793
140.3456,76.5129
140.3792,76.5632
140.3910,76.6225
140.3910,77.0475
140.3792,77.1068
140.3456,77.1571
140.2953,77.1907
140.2360,77.2025
Z" /> 
</g> 
</svg>
