%TF.GenerationSoftware,KiCad,Pcbnew,8.0.6*%
%TF.CreationDate,2024-12-01T16:56:04-05:00*%
%TF.ProjectId,V2_PCB,56325f50-4342-42e6-9b69-6361645f7063,rev?*%
%TF.SameCoordinates,Original*%
%TF.FileFunction,Copper,L2,Bot*%
%TF.FilePolarity,Positive*%
%FSLAX46Y46*%
G04 Gerber Fmt 4.6, Leading zero omitted, Abs format (unit mm)*
G04 Created by KiCad (PCBNEW 8.0.6) date 2024-12-01 16:56:04*
%MOMM*%
%LPD*%
G01*
G04 APERTURE LIST*
%TA.AperFunction,ComponentPad*%
%ADD10O,1.600200X2.641600*%
%TD*%
%TA.AperFunction,ViaPad*%
%ADD11C,0.800000*%
%TD*%
%TA.AperFunction,Conductor*%
%ADD12C,0.150000*%
%TD*%
G04 APERTURE END LIST*
D10*
%TO.P,J8,SH,SH*%
%TO.N,GND*%
X141859000Y-84836000D03*
X141859000Y-81476000D03*
X135659000Y-84836000D03*
X135659000Y-81476000D03*
%TD*%
D11*
%TO.N,GND*%
X141833600Y-73787000D03*
X141198600Y-76733400D03*
%TO.N,/SCL*%
X136144000Y-76454000D03*
X136309000Y-78663800D03*
%TO.N,Net-(J3-Pin_1)*%
X138430000Y-83032600D03*
X135398101Y-74060982D03*
%TO.N,/SDA*%
X136880793Y-75441106D03*
X136934000Y-82476358D03*
%TD*%
D12*
%TO.N,/SCL*%
X136309000Y-78066800D02*
X136144000Y-77901800D01*
X136309000Y-78663800D02*
X136309000Y-78066800D01*
X136144000Y-77901800D02*
X136144000Y-76454000D01*
%TO.N,/SDA*%
X136880793Y-75441106D02*
X136934000Y-75494313D01*
X136934000Y-75494313D02*
X136934000Y-82476358D01*
%TO.N,Net-(J3-Pin_1)*%
X138303000Y-83032600D02*
X138430000Y-83032600D01*
X138277600Y-83007200D02*
X138303000Y-83032600D01*
X137972800Y-82702400D02*
X138277600Y-83007200D01*
X137972800Y-74456695D02*
X137972800Y-82702400D01*
X135894534Y-73564549D02*
X137080654Y-73564549D01*
X135398101Y-74060982D02*
X135894534Y-73564549D01*
X137080654Y-73564549D02*
X137972800Y-74456695D01*
%TD*%
%TA.AperFunction,Conductor*%
%TO.N,GND*%
G36*
X138948558Y-71455648D02*
G01*
X139320432Y-71491157D01*
X139332109Y-71492836D01*
X139698919Y-71563533D01*
X139710358Y-71566308D01*
X140068800Y-71671556D01*
X140079932Y-71675409D01*
X140426738Y-71814249D01*
X140437472Y-71819151D01*
X140769503Y-71990325D01*
X140779723Y-71996226D01*
X141093971Y-72198182D01*
X141103582Y-72205026D01*
X141397213Y-72435938D01*
X141406132Y-72443666D01*
X141676485Y-72701448D01*
X141684628Y-72709988D01*
X141929257Y-72992305D01*
X141936551Y-73001581D01*
X142153228Y-73305861D01*
X142159608Y-73315788D01*
X142346385Y-73639296D01*
X142351792Y-73649784D01*
X142506972Y-73989580D01*
X142511357Y-74000534D01*
X142632309Y-74350000D01*
X142633533Y-74353535D01*
X142636858Y-74364858D01*
X142724927Y-74727888D01*
X142727160Y-74739475D01*
X142780322Y-75109221D01*
X142781444Y-75120968D01*
X142799360Y-75497060D01*
X142799500Y-75502960D01*
X142799500Y-79788237D01*
X142779815Y-79855276D01*
X142727011Y-79901031D01*
X142657853Y-79910975D01*
X142602615Y-79888555D01*
X142540404Y-79843357D01*
X142358059Y-79750447D01*
X142358061Y-79750447D01*
X142163442Y-79687213D01*
X142163439Y-79687212D01*
X142109000Y-79678590D01*
X142109000Y-80284970D01*
X142089315Y-80352009D01*
X142036511Y-80397764D01*
X141967353Y-80407708D01*
X141952909Y-80404745D01*
X141932216Y-80399200D01*
X141932212Y-80399200D01*
X141785788Y-80399200D01*
X141785783Y-80399200D01*
X141765091Y-80404745D01*
X141695241Y-80403081D01*
X141637380Y-80363918D01*
X141609877Y-80299689D01*
X141609000Y-80284970D01*
X141609000Y-79678590D01*
X141608999Y-79678590D01*
X141554560Y-79687212D01*
X141554557Y-79687213D01*
X141359939Y-79750447D01*
X141177598Y-79843355D01*
X141012039Y-79963641D01*
X140867341Y-80108339D01*
X140747055Y-80273898D01*
X140654148Y-80456237D01*
X140590913Y-80650854D01*
X140590913Y-80650857D01*
X140558900Y-80852980D01*
X140558900Y-81226000D01*
X141301568Y-81226000D01*
X141368607Y-81245685D01*
X141408954Y-81287999D01*
X141414009Y-81296754D01*
X141414011Y-81296756D01*
X141505574Y-81388319D01*
X141539059Y-81449642D01*
X141534075Y-81519334D01*
X141505574Y-81563681D01*
X141414011Y-81655243D01*
X141414007Y-81655249D01*
X141408955Y-81664000D01*
X141358389Y-81712215D01*
X141301568Y-81726000D01*
X140558900Y-81726000D01*
X140558900Y-82099019D01*
X140590913Y-82301142D01*
X140590913Y-82301145D01*
X140654148Y-82495762D01*
X140747055Y-82678101D01*
X140867341Y-82843660D01*
X141012039Y-82988358D01*
X141104702Y-83055682D01*
X141147367Y-83111012D01*
X141153346Y-83180625D01*
X141120740Y-83242420D01*
X141104702Y-83256318D01*
X141012039Y-83323641D01*
X140867341Y-83468339D01*
X140747055Y-83633898D01*
X140654148Y-83816237D01*
X140590913Y-84010854D01*
X140590913Y-84010857D01*
X140558900Y-84212980D01*
X140558900Y-84586000D01*
X141301568Y-84586000D01*
X141368607Y-84605685D01*
X141408954Y-84647999D01*
X141414009Y-84656754D01*
X141414011Y-84656756D01*
X141505574Y-84748319D01*
X141539059Y-84809642D01*
X141534075Y-84879334D01*
X141505574Y-84923681D01*
X141414011Y-85015243D01*
X141414007Y-85015249D01*
X141408955Y-85024000D01*
X141358389Y-85072215D01*
X141301568Y-85086000D01*
X140558900Y-85086000D01*
X140558900Y-85459019D01*
X140590913Y-85661142D01*
X140590913Y-85661145D01*
X140654148Y-85855762D01*
X140747055Y-86038101D01*
X140793927Y-86102614D01*
X140817407Y-86168420D01*
X140801582Y-86236474D01*
X140751476Y-86285169D01*
X140693609Y-86299500D01*
X136824391Y-86299500D01*
X136757352Y-86279815D01*
X136711597Y-86227011D01*
X136701653Y-86157853D01*
X136724073Y-86102614D01*
X136770944Y-86038101D01*
X136863851Y-85855762D01*
X136927086Y-85661145D01*
X136927086Y-85661142D01*
X136959100Y-85459019D01*
X136959100Y-85086000D01*
X136216432Y-85086000D01*
X136149393Y-85066315D01*
X136109045Y-85024000D01*
X136103991Y-85015246D01*
X136012426Y-84923681D01*
X135978941Y-84862358D01*
X135983925Y-84792666D01*
X136012426Y-84748319D01*
X136050745Y-84710000D01*
X136103991Y-84656754D01*
X136109045Y-84647999D01*
X136159611Y-84599785D01*
X136216432Y-84586000D01*
X136959100Y-84586000D01*
X136959100Y-84212980D01*
X136927086Y-84010857D01*
X136927086Y-84010854D01*
X136863851Y-83816237D01*
X136770942Y-83633895D01*
X136726801Y-83573139D01*
X136703321Y-83507333D01*
X136719147Y-83439279D01*
X136769252Y-83390584D01*
X136832855Y-83377696D01*
X136832855Y-83376858D01*
X136836995Y-83376858D01*
X136837730Y-83376709D01*
X136839288Y-83376858D01*
X136839354Y-83376858D01*
X137028644Y-83376858D01*
X137028646Y-83376858D01*
X137213803Y-83337502D01*
X137386730Y-83260509D01*
X137386733Y-83260506D01*
X137392363Y-83257257D01*
X137392986Y-83258337D01*
X137452362Y-83237142D01*
X137520419Y-83252957D01*
X137569121Y-83303056D01*
X137577391Y-83322620D01*
X137602819Y-83400880D01*
X137602821Y-83400884D01*
X137697467Y-83564816D01*
X137824129Y-83705488D01*
X137977265Y-83816748D01*
X137977270Y-83816751D01*
X138150192Y-83893742D01*
X138150197Y-83893744D01*
X138335354Y-83933100D01*
X138335355Y-83933100D01*
X138524644Y-83933100D01*
X138524646Y-83933100D01*
X138709803Y-83893744D01*
X138882730Y-83816751D01*
X139035871Y-83705488D01*
X139162533Y-83564816D01*
X139257179Y-83400884D01*
X139315674Y-83220856D01*
X139335460Y-83032600D01*
X139315674Y-82844344D01*
X139257179Y-82664316D01*
X139162533Y-82500384D01*
X139035871Y-82359712D01*
X139006199Y-82338154D01*
X138882734Y-82248451D01*
X138882729Y-82248448D01*
X138709807Y-82171457D01*
X138709803Y-82171456D01*
X138646518Y-82158004D01*
X138585037Y-82124811D01*
X138551260Y-82063648D01*
X138548300Y-82036714D01*
X138548300Y-78624500D01*
X138567985Y-78557461D01*
X138620789Y-78511706D01*
X138672300Y-78500500D01*
X138835056Y-78500500D01*
X139000225Y-78459790D01*
X139079692Y-78418081D01*
X139150849Y-78380736D01*
X139150850Y-78380734D01*
X139150852Y-78380734D01*
X139278183Y-78267929D01*
X139374818Y-78127930D01*
X139435140Y-77968872D01*
X139455645Y-77800000D01*
X139435140Y-77631128D01*
X139374818Y-77472070D01*
X139278183Y-77332071D01*
X139150852Y-77219266D01*
X139150849Y-77219263D01*
X139000226Y-77140210D01*
X138835056Y-77099500D01*
X138672300Y-77099500D01*
X138605261Y-77079815D01*
X138559506Y-77027011D01*
X138548300Y-76975500D01*
X138548300Y-74380931D01*
X138548300Y-74380929D01*
X138540013Y-74350000D01*
X140036213Y-74350000D01*
X140056717Y-74518869D01*
X140056718Y-74518874D01*
X140117040Y-74677931D01*
X140155485Y-74733627D01*
X140213675Y-74817929D01*
X140288803Y-74884486D01*
X140341008Y-74930736D01*
X140491631Y-75009789D01*
X140491633Y-75009790D01*
X140656802Y-75050500D01*
X140826914Y-75050500D01*
X140992083Y-75009790D01*
X141084125Y-74961482D01*
X141142707Y-74930736D01*
X141142708Y-74930734D01*
X141142710Y-74930734D01*
X141270041Y-74817929D01*
X141366676Y-74677930D01*
X141426998Y-74518872D01*
X141447503Y-74350000D01*
X141426998Y-74181128D01*
X141418884Y-74159734D01*
X141389839Y-74083146D01*
X141366676Y-74022070D01*
X141351811Y-74000535D01*
X141332334Y-73972318D01*
X141270041Y-73882071D01*
X141142710Y-73769266D01*
X141142707Y-73769263D01*
X140992084Y-73690210D01*
X140826914Y-73649500D01*
X140656802Y-73649500D01*
X140491631Y-73690210D01*
X140341008Y-73769263D01*
X140213674Y-73882072D01*
X140117040Y-74022068D01*
X140056718Y-74181125D01*
X140056717Y-74181130D01*
X140036213Y-74350000D01*
X138540013Y-74350000D01*
X138509081Y-74234560D01*
X138505658Y-74228632D01*
X138475514Y-74176421D01*
X138433315Y-74103330D01*
X138326165Y-73996180D01*
X137434019Y-73104034D01*
X137368404Y-73066151D01*
X137302790Y-73028268D01*
X137229604Y-73008658D01*
X137156420Y-72989049D01*
X135970300Y-72989049D01*
X135845086Y-72989049D01*
X135778047Y-72969364D01*
X135732292Y-72916560D01*
X135722348Y-72847402D01*
X135751373Y-72783847D01*
X135815371Y-72709989D01*
X135823505Y-72701456D01*
X136093881Y-72443653D01*
X136102771Y-72435950D01*
X136396420Y-72205023D01*
X136406028Y-72198182D01*
X136720285Y-71996220D01*
X136730487Y-71990329D01*
X137062536Y-71819146D01*
X137073251Y-71814253D01*
X137420073Y-71675406D01*
X137431192Y-71671558D01*
X137789646Y-71566307D01*
X137801075Y-71563534D01*
X138167893Y-71492836D01*
X138179564Y-71491157D01*
X138551442Y-71455648D01*
X138563229Y-71455087D01*
X138936771Y-71455087D01*
X138948558Y-71455648D01*
G37*
%TD.AperFunction*%
%TA.AperFunction,Conductor*%
G36*
X142742539Y-84605685D02*
G01*
X142788294Y-84658489D01*
X142799500Y-84710000D01*
X142799500Y-84962000D01*
X142779815Y-85029039D01*
X142727011Y-85074794D01*
X142675500Y-85086000D01*
X142416432Y-85086000D01*
X142349393Y-85066315D01*
X142309045Y-85024000D01*
X142303991Y-85015246D01*
X142212426Y-84923681D01*
X142178941Y-84862358D01*
X142183925Y-84792666D01*
X142212426Y-84748319D01*
X142250745Y-84710000D01*
X142303991Y-84656754D01*
X142309045Y-84647999D01*
X142359611Y-84599785D01*
X142416432Y-84586000D01*
X142675500Y-84586000D01*
X142742539Y-84605685D01*
G37*
%TD.AperFunction*%
%TA.AperFunction,Conductor*%
G36*
X135565088Y-82547253D02*
G01*
X135585788Y-82552800D01*
X135585790Y-82552800D01*
X135732210Y-82552800D01*
X135732212Y-82552800D01*
X135752906Y-82547255D01*
X135822755Y-82548916D01*
X135880618Y-82588078D01*
X135908123Y-82652306D01*
X135909000Y-82667029D01*
X135909000Y-83644970D01*
X135889315Y-83712009D01*
X135836511Y-83757764D01*
X135767353Y-83767708D01*
X135752909Y-83764745D01*
X135732216Y-83759200D01*
X135732212Y-83759200D01*
X135585788Y-83759200D01*
X135585783Y-83759200D01*
X135565091Y-83764745D01*
X135495241Y-83763081D01*
X135437380Y-83723918D01*
X135409877Y-83659689D01*
X135409000Y-83644970D01*
X135409000Y-82667029D01*
X135428685Y-82599990D01*
X135481489Y-82554235D01*
X135550647Y-82544291D01*
X135565088Y-82547253D01*
G37*
%TD.AperFunction*%
%TA.AperFunction,Conductor*%
G36*
X141765088Y-82547253D02*
G01*
X141785788Y-82552800D01*
X141785790Y-82552800D01*
X141932210Y-82552800D01*
X141932212Y-82552800D01*
X141952906Y-82547255D01*
X142022755Y-82548916D01*
X142080618Y-82588078D01*
X142108123Y-82652306D01*
X142109000Y-82667029D01*
X142109000Y-83644970D01*
X142089315Y-83712009D01*
X142036511Y-83757764D01*
X141967353Y-83767708D01*
X141952909Y-83764745D01*
X141932216Y-83759200D01*
X141932212Y-83759200D01*
X141785788Y-83759200D01*
X141785783Y-83759200D01*
X141765091Y-83764745D01*
X141695241Y-83763081D01*
X141637380Y-83723918D01*
X141609877Y-83659689D01*
X141609000Y-83644970D01*
X141609000Y-82667029D01*
X141628685Y-82599990D01*
X141681489Y-82554235D01*
X141750647Y-82544291D01*
X141765088Y-82547253D01*
G37*
%TD.AperFunction*%
%TA.AperFunction,Conductor*%
G36*
X142742539Y-81245685D02*
G01*
X142788294Y-81298489D01*
X142799500Y-81350000D01*
X142799500Y-81602000D01*
X142779815Y-81669039D01*
X142727011Y-81714794D01*
X142675500Y-81726000D01*
X142416432Y-81726000D01*
X142349393Y-81706315D01*
X142309045Y-81664000D01*
X142303991Y-81655246D01*
X142212426Y-81563681D01*
X142178941Y-81502358D01*
X142183925Y-81432666D01*
X142212426Y-81388319D01*
X142250745Y-81350000D01*
X142303991Y-81296754D01*
X142309045Y-81287999D01*
X142359611Y-81239785D01*
X142416432Y-81226000D01*
X142675500Y-81226000D01*
X142742539Y-81245685D01*
G37*
%TD.AperFunction*%
%TA.AperFunction,Conductor*%
G36*
X136088479Y-74762072D02*
G01*
X136137174Y-74812178D01*
X136151049Y-74880656D01*
X136134891Y-74932044D01*
X136053616Y-75072816D01*
X136053611Y-75072828D01*
X135995120Y-75252846D01*
X135995119Y-75252850D01*
X135990769Y-75294241D01*
X135975333Y-75441106D01*
X135976835Y-75455395D01*
X135964265Y-75524125D01*
X135916533Y-75575148D01*
X135879298Y-75589646D01*
X135864193Y-75592856D01*
X135864192Y-75592857D01*
X135691270Y-75669848D01*
X135691265Y-75669851D01*
X135538129Y-75781111D01*
X135411466Y-75921785D01*
X135316821Y-76085715D01*
X135316818Y-76085722D01*
X135258327Y-76265740D01*
X135258326Y-76265744D01*
X135238540Y-76454000D01*
X135258326Y-76642256D01*
X135258327Y-76642259D01*
X135316818Y-76822277D01*
X135316821Y-76822284D01*
X135411467Y-76986216D01*
X135513469Y-77099500D01*
X135536650Y-77125245D01*
X135566880Y-77188236D01*
X135568500Y-77208217D01*
X135568500Y-77826034D01*
X135568500Y-77977566D01*
X135578740Y-78015783D01*
X135585919Y-78042575D01*
X135584256Y-78112425D01*
X135573532Y-78136667D01*
X135497750Y-78267927D01*
X135481820Y-78295518D01*
X135481818Y-78295522D01*
X135423327Y-78475540D01*
X135423326Y-78475544D01*
X135403540Y-78663800D01*
X135423326Y-78852056D01*
X135423327Y-78852059D01*
X135481818Y-79032077D01*
X135481821Y-79032084D01*
X135576467Y-79196016D01*
X135703129Y-79336688D01*
X135856265Y-79447948D01*
X135856267Y-79447949D01*
X135856270Y-79447951D01*
X135888904Y-79462480D01*
X135942139Y-79507729D01*
X135962461Y-79574578D01*
X135943416Y-79641802D01*
X135918999Y-79670049D01*
X135909000Y-79678589D01*
X135909000Y-80284970D01*
X135889315Y-80352009D01*
X135836511Y-80397764D01*
X135767353Y-80407708D01*
X135752909Y-80404745D01*
X135732216Y-80399200D01*
X135732212Y-80399200D01*
X135585788Y-80399200D01*
X135585783Y-80399200D01*
X135565091Y-80404745D01*
X135495241Y-80403081D01*
X135437380Y-80363918D01*
X135409877Y-80299689D01*
X135409000Y-80284970D01*
X135409000Y-79678590D01*
X135408999Y-79678590D01*
X135354560Y-79687212D01*
X135354557Y-79687213D01*
X135159939Y-79750447D01*
X134977595Y-79843357D01*
X134897385Y-79901633D01*
X134831579Y-79925113D01*
X134763525Y-79909287D01*
X134714830Y-79859182D01*
X134700500Y-79801315D01*
X134700500Y-75502960D01*
X134700640Y-75497060D01*
X134718555Y-75120968D01*
X134719677Y-75109221D01*
X134724910Y-75072828D01*
X134746138Y-74925179D01*
X134775163Y-74861625D01*
X134833941Y-74823851D01*
X134903811Y-74823851D01*
X134941764Y-74842512D01*
X134945367Y-74845130D01*
X134945371Y-74845133D01*
X135118293Y-74922124D01*
X135118298Y-74922126D01*
X135303455Y-74961482D01*
X135303456Y-74961482D01*
X135492745Y-74961482D01*
X135492747Y-74961482D01*
X135677904Y-74922126D01*
X135850831Y-74845133D01*
X135954619Y-74769727D01*
X136020425Y-74746247D01*
X136088479Y-74762072D01*
G37*
%TD.AperFunction*%
%TD*%
M02*
