%TF.GenerationSoftware,KiCad,Pcbnew,8.0.6*%
%TF.CreationDate,2024-12-01T16:56:05-05:00*%
%TF.ProjectId,V2_PCB,56325f50-4342-42e6-9b69-6361645f7063,rev?*%
%TF.SameCoordinates,Original*%
%TF.FileFunction,Legend,Top*%
%TF.FilePolarity,Positive*%
%FSLAX46Y46*%
G04 Gerber Fmt 4.6, Leading zero omitted, Abs format (unit mm)*
G04 Created by KiCad (PCBNEW 8.0.6) date 2024-12-01 16:56:05*
%MOMM*%
%LPD*%
G01*
G04 APERTURE LIST*
%ADD10C,0.150000*%
%ADD11C,0.152400*%
%ADD12C,0.120000*%
G04 APERTURE END LIST*
D10*
X139305380Y-72517095D02*
X138495857Y-72517095D01*
X138495857Y-72517095D02*
X138400619Y-72564714D01*
X138400619Y-72564714D02*
X138353000Y-72612333D01*
X138353000Y-72612333D02*
X138305380Y-72707571D01*
X138305380Y-72707571D02*
X138305380Y-72898047D01*
X138305380Y-72898047D02*
X138353000Y-72993285D01*
X138353000Y-72993285D02*
X138400619Y-73040904D01*
X138400619Y-73040904D02*
X138495857Y-73088523D01*
X138495857Y-73088523D02*
X139305380Y-73088523D01*
X138305380Y-74088523D02*
X138305380Y-73517095D01*
X138305380Y-73802809D02*
X139305380Y-73802809D01*
X139305380Y-73802809D02*
X139162523Y-73707571D01*
X139162523Y-73707571D02*
X139067285Y-73612333D01*
X139067285Y-73612333D02*
X139019666Y-73517095D01*
X135428819Y-77218166D02*
X134952628Y-77551499D01*
X135428819Y-77789594D02*
X134428819Y-77789594D01*
X134428819Y-77789594D02*
X134428819Y-77408642D01*
X134428819Y-77408642D02*
X134476438Y-77313404D01*
X134476438Y-77313404D02*
X134524057Y-77265785D01*
X134524057Y-77265785D02*
X134619295Y-77218166D01*
X134619295Y-77218166D02*
X134762152Y-77218166D01*
X134762152Y-77218166D02*
X134857390Y-77265785D01*
X134857390Y-77265785D02*
X134905009Y-77313404D01*
X134905009Y-77313404D02*
X134952628Y-77408642D01*
X134952628Y-77408642D02*
X134952628Y-77789594D01*
X134524057Y-76837213D02*
X134476438Y-76789594D01*
X134476438Y-76789594D02*
X134428819Y-76694356D01*
X134428819Y-76694356D02*
X134428819Y-76456261D01*
X134428819Y-76456261D02*
X134476438Y-76361023D01*
X134476438Y-76361023D02*
X134524057Y-76313404D01*
X134524057Y-76313404D02*
X134619295Y-76265785D01*
X134619295Y-76265785D02*
X134714533Y-76265785D01*
X134714533Y-76265785D02*
X134857390Y-76313404D01*
X134857390Y-76313404D02*
X135428819Y-76884832D01*
X135428819Y-76884832D02*
X135428819Y-76265785D01*
X134412819Y-77218166D02*
X133936628Y-77551499D01*
X134412819Y-77789594D02*
X133412819Y-77789594D01*
X133412819Y-77789594D02*
X133412819Y-77408642D01*
X133412819Y-77408642D02*
X133460438Y-77313404D01*
X133460438Y-77313404D02*
X133508057Y-77265785D01*
X133508057Y-77265785D02*
X133603295Y-77218166D01*
X133603295Y-77218166D02*
X133746152Y-77218166D01*
X133746152Y-77218166D02*
X133841390Y-77265785D01*
X133841390Y-77265785D02*
X133889009Y-77313404D01*
X133889009Y-77313404D02*
X133936628Y-77408642D01*
X133936628Y-77408642D02*
X133936628Y-77789594D01*
X134412819Y-76265785D02*
X134412819Y-76837213D01*
X134412819Y-76551499D02*
X133412819Y-76551499D01*
X133412819Y-76551499D02*
X133555676Y-76646737D01*
X133555676Y-76646737D02*
X133650914Y-76741975D01*
X133650914Y-76741975D02*
X133698533Y-76837213D01*
X138425666Y-79515819D02*
X138425666Y-80230104D01*
X138425666Y-80230104D02*
X138378047Y-80372961D01*
X138378047Y-80372961D02*
X138282809Y-80468200D01*
X138282809Y-80468200D02*
X138139952Y-80515819D01*
X138139952Y-80515819D02*
X138044714Y-80515819D01*
X139044714Y-79944390D02*
X138949476Y-79896771D01*
X138949476Y-79896771D02*
X138901857Y-79849152D01*
X138901857Y-79849152D02*
X138854238Y-79753914D01*
X138854238Y-79753914D02*
X138854238Y-79706295D01*
X138854238Y-79706295D02*
X138901857Y-79611057D01*
X138901857Y-79611057D02*
X138949476Y-79563438D01*
X138949476Y-79563438D02*
X139044714Y-79515819D01*
X139044714Y-79515819D02*
X139235190Y-79515819D01*
X139235190Y-79515819D02*
X139330428Y-79563438D01*
X139330428Y-79563438D02*
X139378047Y-79611057D01*
X139378047Y-79611057D02*
X139425666Y-79706295D01*
X139425666Y-79706295D02*
X139425666Y-79753914D01*
X139425666Y-79753914D02*
X139378047Y-79849152D01*
X139378047Y-79849152D02*
X139330428Y-79896771D01*
X139330428Y-79896771D02*
X139235190Y-79944390D01*
X139235190Y-79944390D02*
X139044714Y-79944390D01*
X139044714Y-79944390D02*
X138949476Y-79992009D01*
X138949476Y-79992009D02*
X138901857Y-80039628D01*
X138901857Y-80039628D02*
X138854238Y-80134866D01*
X138854238Y-80134866D02*
X138854238Y-80325342D01*
X138854238Y-80325342D02*
X138901857Y-80420580D01*
X138901857Y-80420580D02*
X138949476Y-80468200D01*
X138949476Y-80468200D02*
X139044714Y-80515819D01*
X139044714Y-80515819D02*
X139235190Y-80515819D01*
X139235190Y-80515819D02*
X139330428Y-80468200D01*
X139330428Y-80468200D02*
X139378047Y-80420580D01*
X139378047Y-80420580D02*
X139425666Y-80325342D01*
X139425666Y-80325342D02*
X139425666Y-80134866D01*
X139425666Y-80134866D02*
X139378047Y-80039628D01*
X139378047Y-80039628D02*
X139330428Y-79992009D01*
X139330428Y-79992009D02*
X139235190Y-79944390D01*
X134419000Y-79515819D02*
X134419000Y-79753914D01*
X134180905Y-79658676D02*
X134419000Y-79753914D01*
X134419000Y-79753914D02*
X134657095Y-79658676D01*
X134276143Y-79944390D02*
X134419000Y-79753914D01*
X134419000Y-79753914D02*
X134561857Y-79944390D01*
X134419000Y-79515819D02*
X134419000Y-79753914D01*
X134180905Y-79658676D02*
X134419000Y-79753914D01*
X134419000Y-79753914D02*
X134657095Y-79658676D01*
X134276143Y-79944390D02*
X134419000Y-79753914D01*
X134419000Y-79753914D02*
X134561857Y-79944390D01*
X139280580Y-76434166D02*
X139328200Y-76481785D01*
X139328200Y-76481785D02*
X139375819Y-76624642D01*
X139375819Y-76624642D02*
X139375819Y-76719880D01*
X139375819Y-76719880D02*
X139328200Y-76862737D01*
X139328200Y-76862737D02*
X139232961Y-76957975D01*
X139232961Y-76957975D02*
X139137723Y-77005594D01*
X139137723Y-77005594D02*
X138947247Y-77053213D01*
X138947247Y-77053213D02*
X138804390Y-77053213D01*
X138804390Y-77053213D02*
X138613914Y-77005594D01*
X138613914Y-77005594D02*
X138518676Y-76957975D01*
X138518676Y-76957975D02*
X138423438Y-76862737D01*
X138423438Y-76862737D02*
X138375819Y-76719880D01*
X138375819Y-76719880D02*
X138375819Y-76624642D01*
X138375819Y-76624642D02*
X138423438Y-76481785D01*
X138423438Y-76481785D02*
X138471057Y-76434166D01*
X139375819Y-75481785D02*
X139375819Y-76053213D01*
X139375819Y-75767499D02*
X138375819Y-75767499D01*
X138375819Y-75767499D02*
X138518676Y-75862737D01*
X138518676Y-75862737D02*
X138613914Y-75957975D01*
X138613914Y-75957975D02*
X138661533Y-76053213D01*
D11*
%TO.C,U1*%
X137629900Y-72504167D02*
X137629900Y-74053833D01*
X139890500Y-74053833D02*
X139890500Y-72504167D01*
D12*
%TO.C,R2*%
X136524000Y-77219121D02*
X136524000Y-76883879D01*
X135764000Y-77219121D02*
X135764000Y-76883879D01*
%TO.C,R1*%
X135508000Y-77219121D02*
X135508000Y-76883879D01*
X134748000Y-77219121D02*
X134748000Y-76883879D01*
D11*
%TO.C,J8*%
X142188000Y-87359200D02*
X142188000Y-85961324D01*
X142188000Y-83710675D02*
X142188000Y-83080714D01*
X142188000Y-79871286D02*
X142188000Y-79409000D01*
X142188000Y-79409000D02*
X140958813Y-79409000D01*
X136559187Y-79409000D02*
X135330000Y-79409000D01*
X135330000Y-87359200D02*
X142188000Y-87359200D01*
X135330000Y-86440713D02*
X135330000Y-87359200D01*
X135330000Y-79409000D02*
X135330000Y-79871286D01*
D12*
%TO.C,C1*%
X140441000Y-76383335D02*
X140441000Y-76151665D01*
X139721000Y-76383335D02*
X139721000Y-76151665D01*
%TD*%
M02*
