%TF.GenerationSoftware,KiCad,Pcbnew,7.0.10*%
%TF.CreationDate,2024-07-01T11:26:26-04:00*%
%TF.ProjectId,PCB,5043422e-6b69-4636-9164-5f7063625858,rev?*%
%TF.SameCoordinates,Original*%
%TF.FileFunction,Copper,L1,Top*%
%TF.FilePolarity,Positive*%
%FSLAX46Y46*%
G04 Gerber Fmt 4.6, Leading zero omitted, Abs format (unit mm)*
G04 Created by KiCad (PCBNEW 7.0.10) date 2024-07-01 11:26:26*
%MOMM*%
%LPD*%
G01*
G04 APERTURE LIST*
G04 Aperture macros list*
%AMRoundRect*
0 Rectangle with rounded corners*
0 $1 Rounding radius*
0 $2 $3 $4 $5 $6 $7 $8 $9 X,Y pos of 4 corners*
0 Add a 4 corners polygon primitive as box body*
4,1,4,$2,$3,$4,$5,$6,$7,$8,$9,$2,$3,0*
0 Add four circle primitives for the rounded corners*
1,1,$1+$1,$2,$3*
1,1,$1+$1,$4,$5*
1,1,$1+$1,$6,$7*
1,1,$1+$1,$8,$9*
0 Add four rect primitives between the rounded corners*
20,1,$1+$1,$2,$3,$4,$5,0*
20,1,$1+$1,$4,$5,$6,$7,0*
20,1,$1+$1,$6,$7,$8,$9,0*
20,1,$1+$1,$8,$9,$2,$3,0*%
G04 Aperture macros list end*
%TA.AperFunction,SMDPad,CuDef*%
%ADD10RoundRect,0.187500X0.187500X-0.562500X0.187500X0.562500X-0.187500X0.562500X-0.187500X-0.562500X0*%
%TD*%
%TA.AperFunction,SMDPad,CuDef*%
%ADD11RoundRect,0.250000X-0.250000X-0.250000X0.250000X-0.250000X0.250000X0.250000X-0.250000X0.250000X0*%
%TD*%
%TA.AperFunction,ViaPad*%
%ADD12C,0.500000*%
%TD*%
%TA.AperFunction,Conductor*%
%ADD13C,0.150000*%
%TD*%
G04 APERTURE END LIST*
D10*
%TO.P,TP17,1,1*%
%TO.N,Net-(TP11-Pad1)*%
X154700000Y-96900000D03*
%TD*%
D11*
%TO.P,TP6,1,1*%
%TO.N,Net-(TP12-Pad1)*%
X154050000Y-94100000D03*
%TD*%
%TO.P,TP11,1,1*%
%TO.N,Net-(TP11-Pad1)*%
X154050000Y-91100000D03*
%TD*%
%TO.P,TP10,1,1*%
%TO.N,Net-(TP10-Pad1)*%
X155750000Y-93200000D03*
%TD*%
D10*
%TO.P,TP15,1,1*%
%TO.N,Net-(TP15-Pad1)*%
X151950000Y-96900000D03*
%TD*%
D11*
%TO.P,TP7,1,1*%
%TO.N,Net-(TP13-Pad1)*%
X153300000Y-96650000D03*
%TD*%
D10*
%TO.P,TP16,1,1*%
%TO.N,Net-(TP10-Pad1)*%
X155900000Y-96900000D03*
%TD*%
%TO.P,TP14,1,1*%
%TO.N,Net-(TP14-Pad1)*%
X150750000Y-96900000D03*
%TD*%
D11*
%TO.P,TP9,1,1*%
%TO.N,Net-(TP15-Pad1)*%
X152550000Y-91100000D03*
%TD*%
D10*
%TO.P,TP12,1,1*%
%TO.N,Net-(TP12-Pad1)*%
X153950000Y-98900000D03*
%TD*%
%TO.P,TP13,1,1*%
%TO.N,Net-(TP13-Pad1)*%
X152750000Y-98900000D03*
%TD*%
D11*
%TO.P,TP5,1,1*%
%TO.N,+3.3V*%
X152550000Y-94100000D03*
%TD*%
%TO.P,TP8,1,1*%
%TO.N,Net-(TP14-Pad1)*%
X150850000Y-93200000D03*
%TD*%
D12*
%TO.N,+3.3V*%
X151525000Y-98350000D03*
%TO.N,GND*%
X151800000Y-92925000D03*
X155240000Y-99440000D03*
X153200000Y-92750000D03*
X150570000Y-95170000D03*
X155260000Y-94230000D03*
%TD*%
D13*
%TO.N,+3.3V*%
X152575000Y-97613560D02*
X152575000Y-95794870D01*
X151525000Y-98350000D02*
X151838560Y-98350000D01*
X152422544Y-94227456D02*
X152550000Y-94100000D01*
X151838560Y-98350000D02*
X152575000Y-97613560D01*
X152575000Y-95794870D02*
X152422544Y-95642414D01*
X152422544Y-95642414D02*
X152422544Y-94227456D01*
%TO.N,Net-(TP12-Pad1)*%
X154100000Y-95678169D02*
X154185355Y-95592814D01*
X154185355Y-95592814D02*
X154185355Y-94235355D01*
X154185355Y-94235355D02*
X154050000Y-94100000D01*
X154100000Y-98750000D02*
X154100000Y-95678169D01*
X153950000Y-98900000D02*
X154100000Y-98750000D01*
%TO.N,Net-(TP13-Pad1)*%
X152852000Y-97728297D02*
X152852000Y-97098000D01*
X152852000Y-97098000D02*
X153300000Y-96650000D01*
X152750000Y-98900000D02*
X152850000Y-98800000D01*
X152850000Y-97730298D02*
X152852000Y-97728297D01*
X152850000Y-98800000D02*
X152850000Y-97730298D01*
%TO.N,Net-(TP14-Pad1)*%
X151310000Y-95010000D02*
X151310000Y-95260000D01*
X150750000Y-95820000D02*
X150750000Y-96900000D01*
X150850000Y-93200000D02*
X150850000Y-94550000D01*
X150850000Y-94550000D02*
X151310000Y-95010000D01*
X151310000Y-95260000D02*
X150750000Y-95820000D01*
%TO.N,Net-(TP15-Pad1)*%
X152040000Y-96810000D02*
X151950000Y-96900000D01*
X152040000Y-94736152D02*
X152040000Y-96810000D01*
X151848000Y-94544152D02*
X152040000Y-94736152D01*
X152550000Y-91100000D02*
X152550000Y-92921322D01*
X152550000Y-92921322D02*
X151848000Y-93623322D01*
X151848000Y-93623322D02*
X151848000Y-94544152D01*
%TO.N,Net-(TP10-Pad1)*%
X155750000Y-96750000D02*
X155900000Y-96900000D01*
X155750000Y-93200000D02*
X155750000Y-96750000D01*
%TO.N,Net-(TP11-Pad1)*%
X154775000Y-93403678D02*
X154775000Y-96825000D01*
X154050000Y-91100000D02*
X154050000Y-92678678D01*
X154050000Y-92678678D02*
X154775000Y-93403678D01*
X154775000Y-96825000D02*
X154700000Y-96900000D01*
%TD*%
%TA.AperFunction,Conductor*%
%TO.N,GND*%
G36*
X152173537Y-91708371D02*
G01*
X152190796Y-91716809D01*
X152264173Y-91727500D01*
X152298500Y-91727499D01*
X152333147Y-91741850D01*
X152347500Y-91776498D01*
X152347500Y-92817147D01*
X152333148Y-92851795D01*
X151735027Y-93449915D01*
X151721644Y-93459412D01*
X151718497Y-93460927D01*
X151718493Y-93460931D01*
X151698482Y-93486024D01*
X151694823Y-93490119D01*
X151688677Y-93496265D01*
X151684050Y-93503628D01*
X151680875Y-93508103D01*
X151660861Y-93533200D01*
X151660860Y-93533202D01*
X151660085Y-93536602D01*
X151653805Y-93551765D01*
X151651949Y-93554719D01*
X151651947Y-93554723D01*
X151648353Y-93586616D01*
X151647434Y-93592025D01*
X151645500Y-93600503D01*
X151645500Y-93609194D01*
X151645192Y-93614680D01*
X151641598Y-93646578D01*
X151642749Y-93649867D01*
X151645500Y-93666054D01*
X151645500Y-94501418D01*
X151642751Y-94517600D01*
X151641598Y-94520895D01*
X151645192Y-94552792D01*
X151645500Y-94558278D01*
X151645500Y-94566969D01*
X151647434Y-94575444D01*
X151648354Y-94580859D01*
X151651947Y-94612752D01*
X151651948Y-94612754D01*
X151653804Y-94615708D01*
X151660085Y-94630871D01*
X151660861Y-94634271D01*
X151660862Y-94634273D01*
X151680875Y-94659369D01*
X151684045Y-94663837D01*
X151688677Y-94671207D01*
X151688680Y-94671211D01*
X151694815Y-94677345D01*
X151698478Y-94681443D01*
X151703142Y-94687292D01*
X151718497Y-94706546D01*
X151721637Y-94708058D01*
X151735029Y-94717559D01*
X151823148Y-94805678D01*
X151837500Y-94840326D01*
X151837500Y-95973500D01*
X151823148Y-96008148D01*
X151788500Y-96022500D01*
X151725592Y-96022500D01*
X151700610Y-96025789D01*
X151679712Y-96028540D01*
X151579035Y-96075487D01*
X151579033Y-96075488D01*
X151500488Y-96154033D01*
X151500487Y-96154035D01*
X151453540Y-96254712D01*
X151447500Y-96300595D01*
X151447500Y-97499404D01*
X151447499Y-97499404D01*
X151453540Y-97545287D01*
X151500487Y-97645964D01*
X151500488Y-97645966D01*
X151579033Y-97724511D01*
X151579035Y-97724512D01*
X151579036Y-97724513D01*
X151679714Y-97771460D01*
X151725592Y-97777500D01*
X152006386Y-97777500D01*
X152041034Y-97791852D01*
X152055386Y-97826500D01*
X152041034Y-97861147D01*
X151941679Y-97960502D01*
X151859263Y-98042918D01*
X151824615Y-98057270D01*
X151789967Y-98042918D01*
X151765726Y-98018677D01*
X151765723Y-98018674D01*
X151765721Y-98018673D01*
X151765720Y-98018672D01*
X151651557Y-97960503D01*
X151651556Y-97960502D01*
X151651555Y-97960502D01*
X151525000Y-97940458D01*
X151398445Y-97960502D01*
X151398443Y-97960502D01*
X151398442Y-97960503D01*
X151284279Y-98018672D01*
X151284273Y-98018677D01*
X151193677Y-98109273D01*
X151193672Y-98109279D01*
X151135503Y-98223442D01*
X151135502Y-98223443D01*
X151135502Y-98223445D01*
X151115458Y-98350000D01*
X151135502Y-98476555D01*
X151135502Y-98476556D01*
X151135503Y-98476557D01*
X151172183Y-98548546D01*
X151193674Y-98590723D01*
X151284277Y-98681326D01*
X151398445Y-98739498D01*
X151525000Y-98759542D01*
X151651555Y-98739498D01*
X151765723Y-98681326D01*
X151856326Y-98590723D01*
X151865405Y-98572902D01*
X151893921Y-98548546D01*
X151903583Y-98546455D01*
X151907161Y-98546052D01*
X151910110Y-98544199D01*
X151925284Y-98537912D01*
X151928681Y-98537138D01*
X151953783Y-98517119D01*
X151958255Y-98513946D01*
X151965615Y-98509323D01*
X151971769Y-98503168D01*
X151975848Y-98499523D01*
X152000953Y-98479504D01*
X152002466Y-98476361D01*
X152011964Y-98462972D01*
X152163852Y-98311085D01*
X152198500Y-98296733D01*
X152233148Y-98311085D01*
X152247500Y-98345733D01*
X152247500Y-99499404D01*
X152247499Y-99499404D01*
X152253540Y-99545287D01*
X152292946Y-99629792D01*
X152294582Y-99667259D01*
X152269245Y-99694909D01*
X152248537Y-99699500D01*
X150349500Y-99699500D01*
X150314852Y-99685148D01*
X150300500Y-99650500D01*
X150300500Y-97763649D01*
X150314852Y-97729001D01*
X150349500Y-97714649D01*
X150375135Y-97722733D01*
X150375150Y-97722701D01*
X150375394Y-97722814D01*
X150377608Y-97723513D01*
X150379035Y-97724512D01*
X150379036Y-97724513D01*
X150479714Y-97771460D01*
X150525592Y-97777500D01*
X150525595Y-97777500D01*
X150974404Y-97777500D01*
X150974408Y-97777500D01*
X151020286Y-97771460D01*
X151120964Y-97724513D01*
X151199513Y-97645964D01*
X151246460Y-97545286D01*
X151252500Y-97499408D01*
X151252500Y-96300592D01*
X151246460Y-96254714D01*
X151199513Y-96154036D01*
X151199512Y-96154035D01*
X151199511Y-96154033D01*
X151120966Y-96075488D01*
X151120964Y-96075487D01*
X151020287Y-96028540D01*
X151012585Y-96027526D01*
X150995103Y-96025224D01*
X150962625Y-96006473D01*
X150952500Y-95976644D01*
X150952500Y-95924173D01*
X150966851Y-95889526D01*
X151422972Y-95433404D01*
X151436361Y-95423906D01*
X151439504Y-95422393D01*
X151459523Y-95397288D01*
X151463168Y-95393209D01*
X151469323Y-95387055D01*
X151473946Y-95379695D01*
X151477119Y-95375223D01*
X151497138Y-95350121D01*
X151497912Y-95346724D01*
X151504196Y-95331554D01*
X151506052Y-95328601D01*
X151509646Y-95296695D01*
X151510564Y-95291295D01*
X151512500Y-95282817D01*
X151512500Y-95274133D01*
X151512808Y-95268646D01*
X151516403Y-95236744D01*
X151515249Y-95233448D01*
X151512500Y-95217264D01*
X151512500Y-95052732D01*
X151515251Y-95036545D01*
X151516402Y-95033256D01*
X151512808Y-95001358D01*
X151512500Y-94995872D01*
X151512500Y-94987184D01*
X151510565Y-94978709D01*
X151509644Y-94973287D01*
X151506052Y-94941399D01*
X151506052Y-94941398D01*
X151504195Y-94938442D01*
X151497914Y-94923278D01*
X151497139Y-94919882D01*
X151497138Y-94919881D01*
X151497138Y-94919879D01*
X151488626Y-94909206D01*
X151477123Y-94894780D01*
X151473942Y-94890297D01*
X151469326Y-94882950D01*
X151469323Y-94882945D01*
X151463182Y-94876804D01*
X151459520Y-94872707D01*
X151439503Y-94847606D01*
X151436357Y-94846091D01*
X151422970Y-94836592D01*
X151066852Y-94480474D01*
X151052500Y-94445826D01*
X151052500Y-93876499D01*
X151066852Y-93841851D01*
X151101500Y-93827499D01*
X151135829Y-93827499D01*
X151190859Y-93819481D01*
X151209204Y-93816809D01*
X151322390Y-93761476D01*
X151411476Y-93672390D01*
X151466809Y-93559204D01*
X151477500Y-93485827D01*
X151477499Y-92914174D01*
X151477499Y-92914171D01*
X151477499Y-92914170D01*
X151466809Y-92840796D01*
X151466809Y-92840795D01*
X151444932Y-92796045D01*
X151411476Y-92727610D01*
X151408210Y-92724344D01*
X151393858Y-92689696D01*
X151408210Y-92655048D01*
X151437371Y-92641004D01*
X151487396Y-92635368D01*
X151657663Y-92575789D01*
X151657665Y-92575787D01*
X151657667Y-92575787D01*
X151758232Y-92512597D01*
X151810403Y-92479816D01*
X151937957Y-92352262D01*
X151998696Y-92255596D01*
X152033928Y-92199526D01*
X152033928Y-92199524D01*
X152033930Y-92199522D01*
X152093509Y-92029255D01*
X152113706Y-91850000D01*
X152103326Y-91757877D01*
X152113708Y-91721842D01*
X152146532Y-91703701D01*
X152173537Y-91708371D01*
G37*
%TD.AperFunction*%
%TA.AperFunction,Conductor*%
G36*
X154492000Y-91730871D02*
G01*
X154496672Y-91757880D01*
X154486293Y-91849999D01*
X154506489Y-92029249D01*
X154506491Y-92029258D01*
X154566070Y-92199526D01*
X154662040Y-92352259D01*
X154662042Y-92352262D01*
X154789596Y-92479816D01*
X154803977Y-92488852D01*
X154942331Y-92575787D01*
X154942335Y-92575788D01*
X154942336Y-92575789D01*
X155112603Y-92635368D01*
X155162627Y-92641004D01*
X155195450Y-92659145D01*
X155205833Y-92695182D01*
X155191792Y-92724341D01*
X155188527Y-92727606D01*
X155188523Y-92727612D01*
X155133192Y-92840792D01*
X155133191Y-92840794D01*
X155122500Y-92914171D01*
X155122500Y-93485829D01*
X155133190Y-93559203D01*
X155133190Y-93559204D01*
X155166632Y-93627610D01*
X155188524Y-93672390D01*
X155277610Y-93761476D01*
X155390796Y-93816809D01*
X155464173Y-93827500D01*
X155498500Y-93827499D01*
X155533147Y-93841850D01*
X155547500Y-93876498D01*
X155547500Y-96037050D01*
X155533148Y-96071698D01*
X155531133Y-96073388D01*
X155450488Y-96154033D01*
X155450487Y-96154035D01*
X155403540Y-96254712D01*
X155397500Y-96300595D01*
X155397500Y-97499404D01*
X155397499Y-97499404D01*
X155403540Y-97545287D01*
X155450487Y-97645964D01*
X155450488Y-97645966D01*
X155529033Y-97724511D01*
X155529035Y-97724512D01*
X155529036Y-97724513D01*
X155629714Y-97771460D01*
X155675592Y-97777500D01*
X155675595Y-97777500D01*
X156124404Y-97777500D01*
X156124408Y-97777500D01*
X156170286Y-97771460D01*
X156229794Y-97743710D01*
X156267258Y-97742075D01*
X156294909Y-97767411D01*
X156299500Y-97788120D01*
X156299500Y-99650500D01*
X156285148Y-99685148D01*
X156250500Y-99699500D01*
X154451463Y-99699500D01*
X154416815Y-99685148D01*
X154402463Y-99650500D01*
X154407054Y-99629792D01*
X154446460Y-99545286D01*
X154452500Y-99499408D01*
X154452500Y-98300592D01*
X154446460Y-98254714D01*
X154399513Y-98154036D01*
X154399512Y-98154035D01*
X154399511Y-98154033D01*
X154317933Y-98072455D01*
X154319427Y-98070960D01*
X154303244Y-98045556D01*
X154302500Y-98037050D01*
X154302500Y-97789053D01*
X154316852Y-97754405D01*
X154351500Y-97740053D01*
X154372205Y-97744643D01*
X154429714Y-97771460D01*
X154475592Y-97777500D01*
X154475595Y-97777500D01*
X154924404Y-97777500D01*
X154924408Y-97777500D01*
X154970286Y-97771460D01*
X155070964Y-97724513D01*
X155149513Y-97645964D01*
X155196460Y-97545286D01*
X155202500Y-97499408D01*
X155202500Y-96300592D01*
X155196460Y-96254714D01*
X155149513Y-96154036D01*
X155149512Y-96154035D01*
X155149511Y-96154033D01*
X155070964Y-96075487D01*
X155070965Y-96075487D01*
X155005791Y-96045095D01*
X154980455Y-96017444D01*
X154977500Y-96000686D01*
X154977500Y-93446410D01*
X154980251Y-93430223D01*
X154981402Y-93426934D01*
X154977808Y-93395036D01*
X154977500Y-93389550D01*
X154977500Y-93380864D01*
X154977500Y-93380861D01*
X154975562Y-93372372D01*
X154974645Y-93366976D01*
X154971052Y-93335077D01*
X154969195Y-93332123D01*
X154962912Y-93316951D01*
X154962138Y-93313557D01*
X154942118Y-93288452D01*
X154938947Y-93283982D01*
X154934322Y-93276621D01*
X154934321Y-93276620D01*
X154928183Y-93270483D01*
X154924519Y-93266383D01*
X154904505Y-93241286D01*
X154904504Y-93241285D01*
X154904502Y-93241284D01*
X154901357Y-93239769D01*
X154887970Y-93230270D01*
X154266852Y-92609152D01*
X154252500Y-92574504D01*
X154252500Y-91776499D01*
X154266852Y-91741851D01*
X154301500Y-91727499D01*
X154335829Y-91727499D01*
X154390859Y-91719481D01*
X154409204Y-91716809D01*
X154426458Y-91708373D01*
X154463888Y-91706048D01*
X154492000Y-91730871D01*
G37*
%TD.AperFunction*%
%TA.AperFunction,Conductor*%
G36*
X150373642Y-93760348D02*
G01*
X150373963Y-93759693D01*
X150377609Y-93761475D01*
X150377610Y-93761476D01*
X150490796Y-93816809D01*
X150564173Y-93827500D01*
X150598500Y-93827499D01*
X150633147Y-93841850D01*
X150647500Y-93876498D01*
X150647500Y-94507266D01*
X150644751Y-94523448D01*
X150643598Y-94526743D01*
X150647192Y-94558640D01*
X150647500Y-94564126D01*
X150647500Y-94572817D01*
X150649434Y-94581292D01*
X150650354Y-94586707D01*
X150653947Y-94618600D01*
X150653948Y-94618602D01*
X150655804Y-94621556D01*
X150662085Y-94636719D01*
X150662861Y-94640119D01*
X150662862Y-94640121D01*
X150682875Y-94665217D01*
X150686045Y-94669685D01*
X150690677Y-94677055D01*
X150690680Y-94677059D01*
X150696815Y-94683193D01*
X150700478Y-94687291D01*
X150715832Y-94706545D01*
X150720497Y-94712394D01*
X150723637Y-94713906D01*
X150737029Y-94723407D01*
X151093148Y-95079526D01*
X151107500Y-95114174D01*
X151107500Y-95155825D01*
X151093148Y-95190473D01*
X150637027Y-95646593D01*
X150623644Y-95656090D01*
X150620497Y-95657605D01*
X150620493Y-95657609D01*
X150600482Y-95682702D01*
X150596823Y-95686797D01*
X150590677Y-95692943D01*
X150586050Y-95700306D01*
X150582875Y-95704781D01*
X150562861Y-95729878D01*
X150562860Y-95729880D01*
X150562085Y-95733280D01*
X150555805Y-95748443D01*
X150553949Y-95751397D01*
X150553947Y-95751401D01*
X150550353Y-95783294D01*
X150549434Y-95788703D01*
X150547500Y-95797181D01*
X150547500Y-95805872D01*
X150547192Y-95811358D01*
X150543598Y-95843256D01*
X150544749Y-95846545D01*
X150547500Y-95862732D01*
X150547500Y-95976644D01*
X150533148Y-96011292D01*
X150504896Y-96025224D01*
X150491508Y-96026987D01*
X150479712Y-96028540D01*
X150379035Y-96075487D01*
X150377603Y-96076490D01*
X150376234Y-96076793D01*
X150375150Y-96077299D01*
X150375037Y-96077058D01*
X150340988Y-96084605D01*
X150309360Y-96064453D01*
X150300500Y-96036350D01*
X150300500Y-93801613D01*
X150314852Y-93766965D01*
X150349500Y-93752613D01*
X150373642Y-93760348D01*
G37*
%TD.AperFunction*%
%TA.AperFunction,Conductor*%
G36*
X153633095Y-90019206D02*
G01*
X153638539Y-90019819D01*
X153964747Y-90075244D01*
X153970093Y-90076464D01*
X154277001Y-90164883D01*
X154288027Y-90168060D01*
X154293213Y-90169875D01*
X154598892Y-90296491D01*
X154603837Y-90298872D01*
X154893422Y-90458920D01*
X154898065Y-90461837D01*
X155006148Y-90538525D01*
X155167919Y-90653307D01*
X155172212Y-90656731D01*
X155348387Y-90814171D01*
X155418915Y-90877199D01*
X155422800Y-90881084D01*
X155514248Y-90983414D01*
X155526635Y-91018812D01*
X155510363Y-91052601D01*
X155474965Y-91064988D01*
X155472226Y-91064757D01*
X155291858Y-91044435D01*
X155112608Y-91064631D01*
X155112599Y-91064633D01*
X154942331Y-91124212D01*
X154789598Y-91220182D01*
X154761147Y-91248633D01*
X154726498Y-91262984D01*
X154691850Y-91248632D01*
X154677499Y-91213984D01*
X154677499Y-90814170D01*
X154666809Y-90740796D01*
X154666809Y-90740795D01*
X154648364Y-90703067D01*
X154611476Y-90627610D01*
X154522390Y-90538524D01*
X154465797Y-90510857D01*
X154409207Y-90483192D01*
X154409205Y-90483191D01*
X154335828Y-90472500D01*
X153764170Y-90472500D01*
X153690796Y-90483190D01*
X153690795Y-90483190D01*
X153577612Y-90538523D01*
X153577608Y-90538525D01*
X153488525Y-90627608D01*
X153488523Y-90627612D01*
X153433192Y-90740792D01*
X153433191Y-90740794D01*
X153422500Y-90814171D01*
X153422500Y-91385829D01*
X153433190Y-91459203D01*
X153433190Y-91459204D01*
X153470918Y-91536377D01*
X153488524Y-91572390D01*
X153577610Y-91661476D01*
X153690796Y-91716809D01*
X153764173Y-91727500D01*
X153798500Y-91727499D01*
X153833147Y-91741850D01*
X153847500Y-91776498D01*
X153847500Y-92635944D01*
X153844751Y-92652126D01*
X153843598Y-92655422D01*
X153844583Y-92664163D01*
X153847192Y-92687318D01*
X153847500Y-92692804D01*
X153847500Y-92701495D01*
X153849434Y-92709970D01*
X153850354Y-92715385D01*
X153853947Y-92747278D01*
X153853948Y-92747280D01*
X153855804Y-92750234D01*
X153862085Y-92765397D01*
X153862861Y-92768797D01*
X153862862Y-92768799D01*
X153882875Y-92793895D01*
X153886045Y-92798363D01*
X153890677Y-92805733D01*
X153890680Y-92805737D01*
X153896815Y-92811871D01*
X153900479Y-92815970D01*
X153920497Y-92841072D01*
X153923637Y-92842584D01*
X153937029Y-92852085D01*
X154512508Y-93427564D01*
X154526860Y-93462212D01*
X154512508Y-93496860D01*
X154477860Y-93511212D01*
X154456340Y-93506233D01*
X154409210Y-93483193D01*
X154409205Y-93483191D01*
X154335828Y-93472500D01*
X153764170Y-93472500D01*
X153690796Y-93483190D01*
X153690795Y-93483190D01*
X153577612Y-93538523D01*
X153577608Y-93538525D01*
X153488525Y-93627608D01*
X153488523Y-93627612D01*
X153433192Y-93740792D01*
X153433191Y-93740794D01*
X153422500Y-93814171D01*
X153422500Y-94385829D01*
X153431472Y-94447410D01*
X153422265Y-94483766D01*
X153390048Y-94502962D01*
X153377498Y-94503166D01*
X153300000Y-94494435D01*
X153222501Y-94503166D01*
X153186463Y-94492783D01*
X153168323Y-94459960D01*
X153168527Y-94447410D01*
X153177500Y-94385827D01*
X153177499Y-93814174D01*
X153177499Y-93814171D01*
X153177499Y-93814170D01*
X153166809Y-93740796D01*
X153166809Y-93740795D01*
X153133368Y-93672391D01*
X153111476Y-93627610D01*
X153022390Y-93538524D01*
X152960163Y-93508103D01*
X152909207Y-93483192D01*
X152909205Y-93483191D01*
X152835829Y-93472500D01*
X152835827Y-93472500D01*
X152403495Y-93472500D01*
X152368847Y-93458148D01*
X152354495Y-93423500D01*
X152368847Y-93388852D01*
X152491316Y-93266383D01*
X152662972Y-93094726D01*
X152676361Y-93085228D01*
X152679504Y-93083715D01*
X152699523Y-93058610D01*
X152703168Y-93054531D01*
X152709323Y-93048377D01*
X152713946Y-93041017D01*
X152717119Y-93036545D01*
X152737138Y-93011443D01*
X152737912Y-93008046D01*
X152744199Y-92992872D01*
X152746052Y-92989923D01*
X152749644Y-92958034D01*
X152750563Y-92952621D01*
X152752500Y-92944139D01*
X152752500Y-92935448D01*
X152752808Y-92929962D01*
X152756402Y-92898066D01*
X152755249Y-92894770D01*
X152752500Y-92878588D01*
X152752500Y-91776499D01*
X152766852Y-91741851D01*
X152801500Y-91727499D01*
X152835829Y-91727499D01*
X152890859Y-91719481D01*
X152909204Y-91716809D01*
X153022390Y-91661476D01*
X153111476Y-91572390D01*
X153166809Y-91459204D01*
X153177500Y-91385827D01*
X153177499Y-90814174D01*
X153177499Y-90814171D01*
X153177499Y-90814170D01*
X153166809Y-90740796D01*
X153166809Y-90740795D01*
X153148364Y-90703067D01*
X153111476Y-90627610D01*
X153022390Y-90538524D01*
X152965797Y-90510857D01*
X152909207Y-90483192D01*
X152909205Y-90483191D01*
X152835828Y-90472500D01*
X152264170Y-90472500D01*
X152190796Y-90483190D01*
X152190795Y-90483190D01*
X152077612Y-90538523D01*
X152077608Y-90538525D01*
X151988525Y-90627608D01*
X151988523Y-90627612D01*
X151933192Y-90740792D01*
X151933191Y-90740794D01*
X151922500Y-90814171D01*
X151922500Y-91213985D01*
X151908148Y-91248633D01*
X151873500Y-91262985D01*
X151838852Y-91248633D01*
X151810404Y-91220185D01*
X151810400Y-91220182D01*
X151657667Y-91124212D01*
X151487399Y-91064633D01*
X151487398Y-91064632D01*
X151487396Y-91064632D01*
X151487392Y-91064631D01*
X151487390Y-91064631D01*
X151308141Y-91044435D01*
X151127773Y-91064757D01*
X151091736Y-91054375D01*
X151073595Y-91021551D01*
X151083977Y-90985514D01*
X151085738Y-90983429D01*
X151177209Y-90881073D01*
X151181073Y-90877209D01*
X151427795Y-90656724D01*
X151432067Y-90653316D01*
X151701942Y-90461831D01*
X151706569Y-90458924D01*
X151996169Y-90298868D01*
X152001099Y-90296494D01*
X152306786Y-90169875D01*
X152311967Y-90168061D01*
X152629910Y-90076463D01*
X152635248Y-90075245D01*
X152961462Y-90019818D01*
X152966902Y-90019206D01*
X153297258Y-90000654D01*
X153302742Y-90000654D01*
X153633095Y-90019206D01*
G37*
%TD.AperFunction*%
%TD*%
M02*
