%TF.GenerationSoftware,KiCad,Pcbnew,7.0.10*%
%TF.CreationDate,2024-06-28T15:51:09-04:00*%
%TF.ProjectId,PCB,5043422e-6b69-4636-9164-5f7063625858,rev?*%
%TF.SameCoordinates,Original*%
%TF.FileFunction,Copper,L2,Bot*%
%TF.FilePolarity,Positive*%
%FSLAX46Y46*%
G04 Gerber Fmt 4.6, Leading zero omitted, Abs format (unit mm)*
G04 Created by KiCad (PCBNEW 7.0.10) date 2024-06-28 15:51:09*
%MOMM*%
%LPD*%
G01*
G04 APERTURE LIST*
G04 Aperture macros list*
%AMRoundRect*
0 Rectangle with rounded corners*
0 $1 Rounding radius*
0 $2 $3 $4 $5 $6 $7 $8 $9 X,Y pos of 4 corners*
0 Add a 4 corners polygon primitive as box body*
4,1,4,$2,$3,$4,$5,$6,$7,$8,$9,$2,$3,0*
0 Add four circle primitives for the rounded corners*
1,1,$1+$1,$2,$3*
1,1,$1+$1,$4,$5*
1,1,$1+$1,$6,$7*
1,1,$1+$1,$8,$9*
0 Add four rect primitives between the rounded corners*
20,1,$1+$1,$2,$3,$4,$5,0*
20,1,$1+$1,$4,$5,$6,$7,0*
20,1,$1+$1,$6,$7,$8,$9,0*
20,1,$1+$1,$8,$9,$2,$3,0*%
G04 Aperture macros list end*
%TA.AperFunction,SMDPad,CuDef*%
%ADD10RoundRect,0.187500X-0.187500X0.562500X-0.187500X-0.562500X0.187500X-0.562500X0.187500X0.562500X0*%
%TD*%
%TA.AperFunction,SMDPad,CuDef*%
%ADD11RoundRect,0.135000X0.185000X-0.135000X0.185000X0.135000X-0.185000X0.135000X-0.185000X-0.135000X0*%
%TD*%
%TA.AperFunction,SMDPad,CuDef*%
%ADD12R,1.549400X1.752600*%
%TD*%
%TA.AperFunction,SMDPad,CuDef*%
%ADD13R,0.254000X0.711200*%
%TD*%
%TA.AperFunction,SMDPad,CuDef*%
%ADD14RoundRect,0.140000X0.170000X-0.140000X0.170000X0.140000X-0.170000X0.140000X-0.170000X-0.140000X0*%
%TD*%
%TA.AperFunction,ViaPad*%
%ADD15C,0.500000*%
%TD*%
%TA.AperFunction,Conductor*%
%ADD16C,0.150000*%
%TD*%
G04 APERTURE END LIST*
D10*
%TO.P,TP1,1,1*%
%TO.N,GND*%
X152433333Y-98450000D03*
%TD*%
D11*
%TO.P,R2,1*%
%TO.N,+3.3V*%
X155365000Y-96575000D03*
%TO.P,R2,2*%
%TO.N,Net-(U1-SDA)*%
X155365000Y-95555000D03*
%TD*%
D10*
%TO.P,TP3,1,1*%
%TO.N,Net-(U1-SCL)*%
X154166666Y-98450000D03*
%TD*%
%TO.P,TP4,1,1*%
%TO.N,+3.3V*%
X150700000Y-98450000D03*
%TD*%
%TO.P,TP2,1,1*%
%TO.N,Net-(U1-SDA)*%
X155900000Y-98450000D03*
%TD*%
D12*
%TO.P,U1,9,EP*%
%TO.N,GND*%
X153300000Y-92400000D03*
D13*
%TO.P,U1,8,Vcc*%
%TO.N,+3.3V*%
X152549999Y-93746200D03*
%TO.P,U1,7,WP*%
%TO.N,GND*%
X153050000Y-93746200D03*
%TO.P,U1,6,SCL*%
%TO.N,Net-(U1-SCL)*%
X153550000Y-93746200D03*
%TO.P,U1,5,SDA*%
%TO.N,Net-(U1-SDA)*%
X154050001Y-93746200D03*
%TO.P,U1,4,Vss*%
%TO.N,GND*%
X154050001Y-91053800D03*
%TO.P,U1,3,A2*%
X153550000Y-91053800D03*
%TO.P,U1,2,A1*%
X153050000Y-91053800D03*
%TO.P,U1,1,A0*%
X152549999Y-91053800D03*
%TD*%
D11*
%TO.P,R1,1*%
%TO.N,+3.3V*%
X154425000Y-96575000D03*
%TO.P,R1,2*%
%TO.N,Net-(U1-SCL)*%
X154425000Y-95555000D03*
%TD*%
D14*
%TO.P,C1,2*%
%TO.N,GND*%
X151700000Y-95475000D03*
%TO.P,C1,1*%
%TO.N,+3.3V*%
X151700000Y-96435000D03*
%TD*%
D15*
%TO.N,GND*%
X155240000Y-99440000D03*
X153200000Y-92750000D03*
X155260000Y-94230000D03*
X150570000Y-95170000D03*
X151800000Y-92925000D03*
%TO.N,+3.3V*%
X151525000Y-98350000D03*
%TD*%
D16*
%TO.N,GND*%
X153200000Y-92750000D02*
X153050000Y-92650000D01*
X153050000Y-92150000D02*
X153300000Y-92400000D01*
X153050000Y-91053800D02*
X153050000Y-92150000D01*
X153050000Y-92650000D02*
X153300000Y-92400000D01*
X153050000Y-93746200D02*
X153200000Y-92750000D01*
%TO.N,+3.3V*%
X151425000Y-98450000D02*
X151525000Y-98350000D01*
X150700000Y-98450000D02*
X151425000Y-98450000D01*
%TO.N,GND*%
X152433333Y-96208333D02*
X151700000Y-95475000D01*
X152433333Y-98450000D02*
X152433333Y-96208333D01*
%TO.N,+3.3V*%
X151675000Y-99425000D02*
X150700000Y-98450000D01*
X154550000Y-99425000D02*
X151675000Y-99425000D01*
X154766666Y-99208334D02*
X154550000Y-99425000D01*
X154766666Y-97173334D02*
X154766666Y-99208334D01*
X155365000Y-96575000D02*
X154766666Y-97173334D01*
X154425000Y-96575000D02*
X155365000Y-96575000D01*
%TO.N,Net-(U1-SCL)*%
X154295000Y-95555000D02*
X153791666Y-96058334D01*
X153791666Y-98075000D02*
X154166666Y-98450000D01*
X154425000Y-95555000D02*
X154295000Y-95555000D01*
X153791666Y-96058334D02*
X153791666Y-98075000D01*
%TO.N,Net-(U1-SDA)*%
X155910000Y-98440000D02*
X155900000Y-98450000D01*
X155365000Y-95555000D02*
X155910000Y-96100000D01*
X155910000Y-96100000D02*
X155910000Y-98440000D01*
X155365000Y-95061199D02*
X155365000Y-95555000D01*
X154050001Y-93746200D02*
X155365000Y-95061199D01*
%TO.N,Net-(U1-SCL)*%
X153550000Y-94178799D02*
X153550000Y-93746200D01*
X154425000Y-95053799D02*
X153550000Y-94178799D01*
X154425000Y-95555000D02*
X154425000Y-95053799D01*
%TO.N,GND*%
X153050000Y-94125000D02*
X153050000Y-93746200D01*
X151700000Y-95475000D02*
X153050000Y-94125000D01*
%TO.N,+3.3V*%
X151165000Y-95131199D02*
X152549999Y-93746200D01*
X151165000Y-95900000D02*
X151165000Y-95131199D01*
X151700000Y-96435000D02*
X151165000Y-95900000D01*
X150700000Y-97435000D02*
X151700000Y-96435000D01*
X150700000Y-98450000D02*
X150700000Y-97435000D01*
%TO.N,GND*%
X152450000Y-98450000D02*
X152575000Y-98325000D01*
X152433333Y-98450000D02*
X152450000Y-98450000D01*
X152549999Y-91053800D02*
X154050001Y-91053800D01*
%TD*%
%TA.AperFunction,Conductor*%
%TO.N,GND*%
G36*
X155649944Y-96977038D02*
G01*
X155694875Y-97018569D01*
X155707500Y-97066946D01*
X155707500Y-97481603D01*
X155688593Y-97539794D01*
X155639093Y-97575758D01*
X155636210Y-97576646D01*
X155629718Y-97578538D01*
X155629714Y-97578540D01*
X155529036Y-97625487D01*
X155450487Y-97704036D01*
X155403540Y-97804714D01*
X155397500Y-97850592D01*
X155397500Y-99049408D01*
X155403540Y-99095286D01*
X155450487Y-99195964D01*
X155529036Y-99274513D01*
X155629714Y-99321460D01*
X155675592Y-99327500D01*
X155675593Y-99327500D01*
X156124406Y-99327500D01*
X156124408Y-99327500D01*
X156170286Y-99321460D01*
X156170292Y-99321456D01*
X156172790Y-99320729D01*
X156175262Y-99320804D01*
X156177795Y-99320471D01*
X156177849Y-99320883D01*
X156233947Y-99322593D01*
X156282328Y-99360048D01*
X156299500Y-99415772D01*
X156299500Y-99600500D01*
X156280593Y-99658691D01*
X156231093Y-99694655D01*
X156200500Y-99699500D01*
X154800885Y-99699500D01*
X154742694Y-99680593D01*
X154706730Y-99631093D01*
X154706730Y-99569907D01*
X154730881Y-99530497D01*
X154873629Y-99387748D01*
X154887580Y-99377849D01*
X154887447Y-99377682D01*
X154896163Y-99370730D01*
X154896170Y-99370727D01*
X154914441Y-99347813D01*
X154921824Y-99339552D01*
X154925989Y-99335389D01*
X154929125Y-99330396D01*
X154935533Y-99321365D01*
X154953804Y-99298455D01*
X154953804Y-99298451D01*
X154958645Y-99288402D01*
X154958839Y-99288495D01*
X154959237Y-99287536D01*
X154959033Y-99287465D01*
X154962715Y-99276938D01*
X154962718Y-99276935D01*
X154965997Y-99247826D01*
X154967856Y-99236884D01*
X154969166Y-99231151D01*
X154969166Y-99225264D01*
X154969789Y-99214179D01*
X154969824Y-99213867D01*
X154973068Y-99185078D01*
X154973066Y-99185073D01*
X154971819Y-99173992D01*
X154972030Y-99173968D01*
X154969166Y-99157106D01*
X154969166Y-97298220D01*
X154988073Y-97240029D01*
X154998162Y-97228216D01*
X155224882Y-97001496D01*
X155279399Y-96973719D01*
X155294886Y-96972500D01*
X155575855Y-96972500D01*
X155575856Y-96972500D01*
X155589183Y-96969849D01*
X155649944Y-96977038D01*
G37*
%TD.AperFunction*%
%TA.AperFunction,Conductor*%
G36*
X153630290Y-90019048D02*
G01*
X153641313Y-90020290D01*
X153961981Y-90074774D01*
X153972775Y-90077237D01*
X154285335Y-90167284D01*
X154295806Y-90170948D01*
X154596299Y-90295417D01*
X154606301Y-90300234D01*
X154890961Y-90457560D01*
X154900361Y-90463466D01*
X155165623Y-90651678D01*
X155174300Y-90658598D01*
X155416822Y-90875329D01*
X155416826Y-90875332D01*
X155424672Y-90883179D01*
X155426973Y-90885754D01*
X155451645Y-90941743D01*
X155438694Y-91001542D01*
X155393068Y-91042309D01*
X155342064Y-91050091D01*
X155291858Y-91044435D01*
X155112600Y-91064632D01*
X155112596Y-91064633D01*
X154942335Y-91124211D01*
X154942334Y-91124211D01*
X154789599Y-91220181D01*
X154662039Y-91347741D01*
X154566069Y-91500476D01*
X154566069Y-91500477D01*
X154506491Y-91670738D01*
X154506490Y-91670742D01*
X154486293Y-91850000D01*
X154506490Y-92029257D01*
X154506491Y-92029261D01*
X154566069Y-92199522D01*
X154566069Y-92199523D01*
X154653101Y-92338033D01*
X154662042Y-92352262D01*
X154789596Y-92479816D01*
X154942336Y-92575789D01*
X155010515Y-92599646D01*
X155112596Y-92635366D01*
X155112600Y-92635367D01*
X155112603Y-92635368D01*
X155291858Y-92655565D01*
X155471113Y-92635368D01*
X155641380Y-92575789D01*
X155794120Y-92479816D01*
X155921674Y-92352262D01*
X156015348Y-92203179D01*
X156062315Y-92163969D01*
X156123362Y-92159853D01*
X156175170Y-92192405D01*
X156194304Y-92228445D01*
X156222758Y-92327209D01*
X156225228Y-92338033D01*
X156279708Y-92658681D01*
X156280951Y-92669713D01*
X156299344Y-92997222D01*
X156299500Y-93002773D01*
X156299500Y-96001570D01*
X156280593Y-96059761D01*
X156231093Y-96095725D01*
X156169907Y-96095725D01*
X156120407Y-96059761D01*
X156107056Y-96034268D01*
X156102367Y-96020868D01*
X156102570Y-96020796D01*
X156102171Y-96019835D01*
X156101977Y-96019929D01*
X156097138Y-96009881D01*
X156097138Y-96009879D01*
X156096822Y-96009483D01*
X156078879Y-95986983D01*
X156072453Y-95977926D01*
X156070749Y-95975215D01*
X156069323Y-95972945D01*
X156069321Y-95972943D01*
X156069319Y-95972940D01*
X156065159Y-95968780D01*
X156057766Y-95960506D01*
X156039505Y-95937608D01*
X156030785Y-95930654D01*
X156030917Y-95930487D01*
X156016966Y-95920588D01*
X155841496Y-95745118D01*
X155813719Y-95690601D01*
X155812500Y-95675114D01*
X155812500Y-95394145D01*
X155812500Y-95394144D01*
X155797270Y-95317577D01*
X155739252Y-95230748D01*
X155652423Y-95172730D01*
X155650676Y-95172382D01*
X155648102Y-95170941D01*
X155643414Y-95168999D01*
X155643643Y-95168444D01*
X155597296Y-95142487D01*
X155571680Y-95086921D01*
X155571616Y-95086368D01*
X155571400Y-95084458D01*
X155571402Y-95084455D01*
X155568121Y-95055341D01*
X155567500Y-95044270D01*
X155567500Y-95038386D01*
X155567500Y-95038382D01*
X155566187Y-95032631D01*
X155564330Y-95021704D01*
X155561051Y-94992597D01*
X155561050Y-94992595D01*
X155561050Y-94992593D01*
X155557367Y-94982067D01*
X155557570Y-94981995D01*
X155557171Y-94981034D01*
X155556977Y-94981128D01*
X155552138Y-94971080D01*
X155552138Y-94971078D01*
X155546237Y-94963679D01*
X155533879Y-94948182D01*
X155527453Y-94939125D01*
X155525749Y-94936414D01*
X155524323Y-94934144D01*
X155524321Y-94934142D01*
X155524319Y-94934139D01*
X155520159Y-94929979D01*
X155512766Y-94921705D01*
X155494505Y-94898807D01*
X155485785Y-94891853D01*
X155485917Y-94891686D01*
X155471966Y-94881787D01*
X154333497Y-93743318D01*
X154305720Y-93688801D01*
X154304501Y-93673314D01*
X154304501Y-93378046D01*
X154304501Y-93378042D01*
X154297103Y-93340852D01*
X154268923Y-93298678D01*
X154226749Y-93270498D01*
X154189559Y-93263100D01*
X153910443Y-93263100D01*
X153880691Y-93269018D01*
X153873252Y-93270498D01*
X153855000Y-93282694D01*
X153796111Y-93299301D01*
X153744999Y-93282693D01*
X153726749Y-93270498D01*
X153719310Y-93269018D01*
X153689558Y-93263100D01*
X153410442Y-93263100D01*
X153373252Y-93270498D01*
X153373250Y-93270498D01*
X153373250Y-93270499D01*
X153331080Y-93298676D01*
X153331076Y-93298680D01*
X153302899Y-93340850D01*
X153302898Y-93340852D01*
X153295500Y-93378042D01*
X153295500Y-94114358D01*
X153300903Y-94141518D01*
X153302898Y-94151549D01*
X153336496Y-94201831D01*
X153333510Y-94203825D01*
X153353318Y-94242702D01*
X153353914Y-94247099D01*
X153353947Y-94247399D01*
X153357633Y-94257932D01*
X153357430Y-94258002D01*
X153357827Y-94258961D01*
X153358021Y-94258869D01*
X153362859Y-94268916D01*
X153381128Y-94291826D01*
X153387546Y-94300872D01*
X153390677Y-94305854D01*
X153394843Y-94310020D01*
X153402228Y-94318284D01*
X153417646Y-94337618D01*
X153439143Y-94394903D01*
X153422864Y-94453883D01*
X153375027Y-94492030D01*
X153329161Y-94497720D01*
X153300001Y-94494435D01*
X153300000Y-94494435D01*
X153270845Y-94497720D01*
X153120742Y-94514632D01*
X153120738Y-94514633D01*
X152950477Y-94574211D01*
X152950476Y-94574211D01*
X152797741Y-94670181D01*
X152670181Y-94797741D01*
X152574211Y-94950476D01*
X152574211Y-94950477D01*
X152514633Y-95120738D01*
X152514632Y-95120742D01*
X152494435Y-95300000D01*
X152514632Y-95479257D01*
X152514633Y-95479261D01*
X152574211Y-95649522D01*
X152574211Y-95649523D01*
X152670181Y-95802258D01*
X152670184Y-95802262D01*
X152797738Y-95929816D01*
X152797740Y-95929817D01*
X152797741Y-95929818D01*
X152943486Y-96021396D01*
X152950478Y-96025789D01*
X153010833Y-96046908D01*
X153120738Y-96085366D01*
X153120742Y-96085367D01*
X153120745Y-96085368D01*
X153300000Y-96105565D01*
X153479083Y-96085387D01*
X153539023Y-96097661D01*
X153580303Y-96142823D01*
X153589166Y-96183765D01*
X153589166Y-98023772D01*
X153586301Y-98040634D01*
X153586513Y-98040658D01*
X153585264Y-98051745D01*
X153588543Y-98080845D01*
X153589166Y-98091930D01*
X153589166Y-98097816D01*
X153590477Y-98103563D01*
X153592334Y-98114498D01*
X153595613Y-98143600D01*
X153599299Y-98154133D01*
X153599096Y-98154203D01*
X153599493Y-98155162D01*
X153599687Y-98155070D01*
X153604525Y-98165117D01*
X153622794Y-98188027D01*
X153629212Y-98197073D01*
X153632343Y-98202055D01*
X153635171Y-98204883D01*
X153662947Y-98259398D01*
X153664166Y-98274885D01*
X153664166Y-99049406D01*
X153670206Y-99095287D01*
X153670356Y-99095800D01*
X153670340Y-99096305D01*
X153671195Y-99102795D01*
X153670137Y-99102934D01*
X153668485Y-99156956D01*
X153631025Y-99205334D01*
X153575310Y-99222500D01*
X151799886Y-99222500D01*
X151741695Y-99203593D01*
X151729882Y-99193504D01*
X151464631Y-98928253D01*
X151436854Y-98873736D01*
X151446425Y-98813304D01*
X151489690Y-98770039D01*
X151519149Y-98760468D01*
X151524997Y-98759541D01*
X151525000Y-98759542D01*
X151651555Y-98739498D01*
X151765723Y-98681326D01*
X151856326Y-98590723D01*
X151914498Y-98476555D01*
X151934542Y-98350000D01*
X151914498Y-98223445D01*
X151914495Y-98223440D01*
X151914495Y-98223438D01*
X151856328Y-98109281D01*
X151856327Y-98109279D01*
X151856326Y-98109277D01*
X151765723Y-98018674D01*
X151765720Y-98018672D01*
X151765718Y-98018671D01*
X151651561Y-97960504D01*
X151651556Y-97960502D01*
X151651555Y-97960502D01*
X151525000Y-97940458D01*
X151398445Y-97960502D01*
X151398443Y-97960502D01*
X151346445Y-97986997D01*
X151286012Y-97996568D01*
X151231496Y-97968790D01*
X151203719Y-97914273D01*
X151202500Y-97898787D01*
X151202500Y-97850593D01*
X151202500Y-97850592D01*
X151196460Y-97804714D01*
X151149513Y-97704036D01*
X151070964Y-97625487D01*
X151011506Y-97597761D01*
X150966760Y-97556034D01*
X150955085Y-97495973D01*
X150980943Y-97440520D01*
X150983315Y-97438062D01*
X151549882Y-96871496D01*
X151604399Y-96843719D01*
X151619886Y-96842500D01*
X151896347Y-96842500D01*
X151896348Y-96842500D01*
X151974373Y-96826980D01*
X152062857Y-96767857D01*
X152121980Y-96679373D01*
X152137500Y-96601348D01*
X152137500Y-96268652D01*
X152129634Y-96229110D01*
X152121980Y-96190626D01*
X152076964Y-96123256D01*
X152062857Y-96102143D01*
X152048786Y-96092741D01*
X151974373Y-96043019D01*
X151896351Y-96027500D01*
X151896348Y-96027500D01*
X151619886Y-96027500D01*
X151561695Y-96008593D01*
X151549882Y-95998504D01*
X151396496Y-95845118D01*
X151368719Y-95790601D01*
X151367500Y-95775114D01*
X151367500Y-95256084D01*
X151386407Y-95197893D01*
X151396490Y-95186086D01*
X152325345Y-94257230D01*
X152379860Y-94229455D01*
X152405491Y-94229975D01*
X152405605Y-94228823D01*
X152410436Y-94229299D01*
X152410441Y-94229300D01*
X152410446Y-94229300D01*
X152689552Y-94229300D01*
X152689557Y-94229300D01*
X152726747Y-94221902D01*
X152768921Y-94193722D01*
X152797101Y-94151548D01*
X152804499Y-94114358D01*
X152804499Y-93378042D01*
X152797101Y-93340852D01*
X152768921Y-93298678D01*
X152726747Y-93270498D01*
X152689557Y-93263100D01*
X152410441Y-93263100D01*
X152373251Y-93270498D01*
X152373249Y-93270498D01*
X152373249Y-93270499D01*
X152331079Y-93298676D01*
X152331075Y-93298680D01*
X152302898Y-93340850D01*
X152302897Y-93340852D01*
X152295499Y-93378042D01*
X152295499Y-93378046D01*
X152295499Y-93673313D01*
X152276592Y-93731504D01*
X152266503Y-93743317D01*
X151058031Y-94951788D01*
X151044082Y-94961686D01*
X151044215Y-94961853D01*
X151035493Y-94968808D01*
X151017226Y-94991713D01*
X151009844Y-94999976D01*
X151005676Y-95004144D01*
X151005673Y-95004149D01*
X151002538Y-95009137D01*
X150996127Y-95018172D01*
X150977862Y-95041078D01*
X150973023Y-95051127D01*
X150972831Y-95051034D01*
X150972432Y-95051996D01*
X150972633Y-95052067D01*
X150968947Y-95062599D01*
X150965668Y-95091704D01*
X150963810Y-95102640D01*
X150962500Y-95108381D01*
X150962500Y-95114260D01*
X150961878Y-95125342D01*
X150958598Y-95154455D01*
X150959847Y-95165540D01*
X150959634Y-95165563D01*
X150962500Y-95182426D01*
X150962500Y-95848772D01*
X150959635Y-95865634D01*
X150959847Y-95865658D01*
X150958598Y-95876745D01*
X150961877Y-95905845D01*
X150962500Y-95916930D01*
X150962500Y-95922816D01*
X150963811Y-95928563D01*
X150965668Y-95939498D01*
X150968947Y-95968600D01*
X150972633Y-95979133D01*
X150972430Y-95979203D01*
X150972827Y-95980162D01*
X150973021Y-95980070D01*
X150977859Y-95990117D01*
X150996128Y-96013027D01*
X151002546Y-96022073D01*
X151004880Y-96025788D01*
X151005677Y-96027055D01*
X151009843Y-96031221D01*
X151017228Y-96039485D01*
X151023188Y-96046959D01*
X151035496Y-96062394D01*
X151044215Y-96069346D01*
X151044081Y-96069513D01*
X151058034Y-96079412D01*
X151233504Y-96254882D01*
X151261281Y-96309399D01*
X151262500Y-96324886D01*
X151262500Y-96545113D01*
X151243593Y-96603304D01*
X151233504Y-96615117D01*
X150593031Y-97255589D01*
X150579082Y-97265487D01*
X150579215Y-97265654D01*
X150570493Y-97272609D01*
X150552226Y-97295514D01*
X150544844Y-97303777D01*
X150540676Y-97307945D01*
X150540673Y-97307950D01*
X150537538Y-97312938D01*
X150531127Y-97321973D01*
X150512862Y-97344879D01*
X150508023Y-97354928D01*
X150507831Y-97354835D01*
X150507432Y-97355797D01*
X150507633Y-97355868D01*
X150503947Y-97366400D01*
X150500668Y-97395505D01*
X150498810Y-97406441D01*
X150496264Y-97417599D01*
X150494119Y-97417109D01*
X150472572Y-97464544D01*
X150419356Y-97494738D01*
X150358556Y-97487886D01*
X150313395Y-97446605D01*
X150300500Y-97397750D01*
X150300500Y-93002773D01*
X150300656Y-92997222D01*
X150319048Y-92669713D01*
X150320291Y-92658681D01*
X150374775Y-92338014D01*
X150377236Y-92327228D01*
X150405696Y-92228442D01*
X150439972Y-92177764D01*
X150497493Y-92156909D01*
X150556287Y-92173847D01*
X150584651Y-92203182D01*
X150669384Y-92338033D01*
X150678325Y-92352262D01*
X150805879Y-92479816D01*
X150958619Y-92575789D01*
X151026798Y-92599646D01*
X151128879Y-92635366D01*
X151128883Y-92635367D01*
X151128886Y-92635368D01*
X151308141Y-92655565D01*
X151487396Y-92635368D01*
X151657663Y-92575789D01*
X151810403Y-92479816D01*
X151937957Y-92352262D01*
X152033930Y-92199522D01*
X152093509Y-92029255D01*
X152113706Y-91850000D01*
X152093509Y-91670745D01*
X152088175Y-91655502D01*
X152069155Y-91601145D01*
X152033930Y-91500478D01*
X151978538Y-91412323D01*
X151937959Y-91347741D01*
X151937958Y-91347740D01*
X151937957Y-91347738D01*
X151810403Y-91220184D01*
X151810400Y-91220182D01*
X151810399Y-91220181D01*
X151657664Y-91124211D01*
X151487402Y-91064633D01*
X151487398Y-91064632D01*
X151358349Y-91050092D01*
X151308141Y-91044435D01*
X151308140Y-91044435D01*
X151294682Y-91045951D01*
X151257935Y-91050091D01*
X151197994Y-91037818D01*
X151156715Y-90992656D01*
X151149864Y-90931855D01*
X151173031Y-90885748D01*
X151175335Y-90883170D01*
X151183178Y-90875329D01*
X151425696Y-90658601D01*
X151434364Y-90651686D01*
X151699645Y-90463461D01*
X151709030Y-90457564D01*
X151993704Y-90300230D01*
X152003693Y-90295420D01*
X152304199Y-90170946D01*
X152314658Y-90167286D01*
X152627228Y-90077236D01*
X152638014Y-90074775D01*
X152958688Y-90020290D01*
X152969707Y-90019048D01*
X153294462Y-90000811D01*
X153305538Y-90000811D01*
X153630290Y-90019048D01*
G37*
%TD.AperFunction*%
%TD*%
M02*
