%TF.GenerationSoftware,KiCad,Pcbnew,7.0.10*%
%TF.CreationDate,2024-07-01T11:26:27-04:00*%
%TF.ProjectId,PCB,5043422e-6b69-4636-9164-5f7063625858,rev?*%
%TF.SameCoordinates,Original*%
%TF.FileFunction,Legend,Bot*%
%TF.FilePolarity,Positive*%
%FSLAX46Y46*%
G04 Gerber Fmt 4.6, Leading zero omitted, Abs format (unit mm)*
G04 Created by KiCad (PCBNEW 7.0.10) date 2024-07-01 11:26:27*
%MOMM*%
%LPD*%
G01*
G04 APERTURE LIST*
%ADD10C,0.150000*%
G04 APERTURE END LIST*
D10*
X156479819Y-94108333D02*
X156003628Y-93775000D01*
X156479819Y-93536905D02*
X155479819Y-93536905D01*
X155479819Y-93536905D02*
X155479819Y-93917857D01*
X155479819Y-93917857D02*
X155527438Y-94013095D01*
X155527438Y-94013095D02*
X155575057Y-94060714D01*
X155575057Y-94060714D02*
X155670295Y-94108333D01*
X155670295Y-94108333D02*
X155813152Y-94108333D01*
X155813152Y-94108333D02*
X155908390Y-94060714D01*
X155908390Y-94060714D02*
X155956009Y-94013095D01*
X155956009Y-94013095D02*
X156003628Y-93917857D01*
X156003628Y-93917857D02*
X156003628Y-93536905D01*
X155575057Y-94489286D02*
X155527438Y-94536905D01*
X155527438Y-94536905D02*
X155479819Y-94632143D01*
X155479819Y-94632143D02*
X155479819Y-94870238D01*
X155479819Y-94870238D02*
X155527438Y-94965476D01*
X155527438Y-94965476D02*
X155575057Y-95013095D01*
X155575057Y-95013095D02*
X155670295Y-95060714D01*
X155670295Y-95060714D02*
X155765533Y-95060714D01*
X155765533Y-95060714D02*
X155908390Y-95013095D01*
X155908390Y-95013095D02*
X156479819Y-94441667D01*
X156479819Y-94441667D02*
X156479819Y-95060714D01*
X152754819Y-91638095D02*
X153564342Y-91638095D01*
X153564342Y-91638095D02*
X153659580Y-91685714D01*
X153659580Y-91685714D02*
X153707200Y-91733333D01*
X153707200Y-91733333D02*
X153754819Y-91828571D01*
X153754819Y-91828571D02*
X153754819Y-92019047D01*
X153754819Y-92019047D02*
X153707200Y-92114285D01*
X153707200Y-92114285D02*
X153659580Y-92161904D01*
X153659580Y-92161904D02*
X153564342Y-92209523D01*
X153564342Y-92209523D02*
X152754819Y-92209523D01*
X153754819Y-93209523D02*
X153754819Y-92638095D01*
X153754819Y-92923809D02*
X152754819Y-92923809D01*
X152754819Y-92923809D02*
X152897676Y-92828571D01*
X152897676Y-92828571D02*
X152992914Y-92733333D01*
X152992914Y-92733333D02*
X153040533Y-92638095D01*
X155354819Y-94108333D02*
X154878628Y-93775000D01*
X155354819Y-93536905D02*
X154354819Y-93536905D01*
X154354819Y-93536905D02*
X154354819Y-93917857D01*
X154354819Y-93917857D02*
X154402438Y-94013095D01*
X154402438Y-94013095D02*
X154450057Y-94060714D01*
X154450057Y-94060714D02*
X154545295Y-94108333D01*
X154545295Y-94108333D02*
X154688152Y-94108333D01*
X154688152Y-94108333D02*
X154783390Y-94060714D01*
X154783390Y-94060714D02*
X154831009Y-94013095D01*
X154831009Y-94013095D02*
X154878628Y-93917857D01*
X154878628Y-93917857D02*
X154878628Y-93536905D01*
X155354819Y-95060714D02*
X155354819Y-94489286D01*
X155354819Y-94775000D02*
X154354819Y-94775000D01*
X154354819Y-94775000D02*
X154497676Y-94679762D01*
X154497676Y-94679762D02*
X154592914Y-94584524D01*
X154592914Y-94584524D02*
X154640533Y-94489286D01*
X151959580Y-93858333D02*
X152007200Y-93810714D01*
X152007200Y-93810714D02*
X152054819Y-93667857D01*
X152054819Y-93667857D02*
X152054819Y-93572619D01*
X152054819Y-93572619D02*
X152007200Y-93429762D01*
X152007200Y-93429762D02*
X151911961Y-93334524D01*
X151911961Y-93334524D02*
X151816723Y-93286905D01*
X151816723Y-93286905D02*
X151626247Y-93239286D01*
X151626247Y-93239286D02*
X151483390Y-93239286D01*
X151483390Y-93239286D02*
X151292914Y-93286905D01*
X151292914Y-93286905D02*
X151197676Y-93334524D01*
X151197676Y-93334524D02*
X151102438Y-93429762D01*
X151102438Y-93429762D02*
X151054819Y-93572619D01*
X151054819Y-93572619D02*
X151054819Y-93667857D01*
X151054819Y-93667857D02*
X151102438Y-93810714D01*
X151102438Y-93810714D02*
X151150057Y-93858333D01*
X152054819Y-94810714D02*
X152054819Y-94239286D01*
X152054819Y-94525000D02*
X151054819Y-94525000D01*
X151054819Y-94525000D02*
X151197676Y-94429762D01*
X151197676Y-94429762D02*
X151292914Y-94334524D01*
X151292914Y-94334524D02*
X151340533Y-94239286D01*
%TO.C,R2*%
X154985000Y-96218641D02*
X154985000Y-95911359D01*
X155745000Y-96218641D02*
X155745000Y-95911359D01*
%TO.C,U1*%
X154430300Y-91625167D02*
X154430300Y-93174833D01*
X152169700Y-93174833D02*
X152169700Y-91625167D01*
%TO.C,R1*%
X154045000Y-96218641D02*
X154045000Y-95911359D01*
X154805000Y-96218641D02*
X154805000Y-95911359D01*
%TO.C,C1*%
X151340000Y-96062836D02*
X151340000Y-95847164D01*
X152060000Y-96062836D02*
X152060000Y-95847164D01*
%TD*%
M02*
