%TF.GenerationSoftware,KiCad,Pcbnew,7.0.10*%
%TF.CreationDate,2024-06-24T11:49:02-04:00*%
%TF.ProjectId,PCB,5043422e-6b69-4636-9164-5f7063625858,rev?*%
%TF.SameCoordinates,Original*%
%TF.FileFunction,Copper,L2,Bot*%
%TF.FilePolarity,Positive*%
%FSLAX46Y46*%
G04 Gerber Fmt 4.6, Leading zero omitted, Abs format (unit mm)*
G04 Created by KiCad (PCBNEW 7.0.10) date 2024-06-24 11:49:02*
%MOMM*%
%LPD*%
G01*
G04 APERTURE LIST*
G04 Aperture macros list*
%AMRoundRect*
0 Rectangle with rounded corners*
0 $1 Rounding radius*
0 $2 $3 $4 $5 $6 $7 $8 $9 X,Y pos of 4 corners*
0 Add a 4 corners polygon primitive as box body*
4,1,4,$2,$3,$4,$5,$6,$7,$8,$9,$2,$3,0*
0 Add four circle primitives for the rounded corners*
1,1,$1+$1,$2,$3*
1,1,$1+$1,$4,$5*
1,1,$1+$1,$6,$7*
1,1,$1+$1,$8,$9*
0 Add four rect primitives between the rounded corners*
20,1,$1+$1,$2,$3,$4,$5,0*
20,1,$1+$1,$4,$5,$6,$7,0*
20,1,$1+$1,$6,$7,$8,$9,0*
20,1,$1+$1,$8,$9,$2,$3,0*%
G04 Aperture macros list end*
%TA.AperFunction,SMDPad,CuDef*%
%ADD10R,0.254000X0.711200*%
%TD*%
%TA.AperFunction,SMDPad,CuDef*%
%ADD11R,1.549400X1.752600*%
%TD*%
%TA.AperFunction,ComponentPad*%
%ADD12C,1.000000*%
%TD*%
%TA.AperFunction,SMDPad,CuDef*%
%ADD13RoundRect,0.135000X0.185000X-0.135000X0.185000X0.135000X-0.185000X0.135000X-0.185000X-0.135000X0*%
%TD*%
%TA.AperFunction,SMDPad,CuDef*%
%ADD14RoundRect,0.140000X0.170000X-0.140000X0.170000X0.140000X-0.170000X0.140000X-0.170000X-0.140000X0*%
%TD*%
%TA.AperFunction,ViaPad*%
%ADD15C,0.800000*%
%TD*%
%TA.AperFunction,Conductor*%
%ADD16C,0.250000*%
%TD*%
G04 APERTURE END LIST*
D10*
%TO.P,U1,1,A0*%
%TO.N,GND*%
X156099999Y-91853800D03*
%TO.P,U1,2,A1*%
X156600000Y-91853800D03*
%TO.P,U1,3,A2*%
X157100000Y-91853800D03*
%TO.P,U1,4,Vss*%
X157600001Y-91853800D03*
%TO.P,U1,5,SDA*%
%TO.N,Net-(U1-SDA)*%
X157600001Y-94546200D03*
%TO.P,U1,6,SCL*%
%TO.N,Net-(U1-SCL)*%
X157100000Y-94546200D03*
%TO.P,U1,7,WP*%
%TO.N,GND*%
X156600000Y-94546200D03*
%TO.P,U1,8,Vcc*%
%TO.N,Net-(U1-Vcc)*%
X156099999Y-94546200D03*
D11*
%TO.P,U1,9*%
%TO.N,N/C*%
X156850000Y-93200000D03*
%TD*%
D12*
%TO.P,TP3,1,1*%
%TO.N,Net-(U1-SCL)*%
X158700000Y-99150000D03*
%TD*%
%TO.P,TP1,1,1*%
%TO.N,GND*%
X154200000Y-99250000D03*
%TD*%
%TO.P,TP4,1,1*%
%TO.N,+3.3V*%
X154200000Y-100650000D03*
%TD*%
%TO.P,TP2,1,1*%
%TO.N,Net-(U1-SDA)*%
X159450000Y-100700000D03*
%TD*%
D13*
%TO.P,R2,2*%
%TO.N,Net-(U1-SDA)*%
X159200000Y-96230000D03*
%TO.P,R2,1*%
%TO.N,+3.3V*%
X159200000Y-97250000D03*
%TD*%
D14*
%TO.P,C1,1*%
%TO.N,+3.3V*%
X155500000Y-96760000D03*
%TO.P,C1,2*%
%TO.N,Net-(U1-Vcc)*%
X155500000Y-95800000D03*
%TD*%
D13*
%TO.P,R1,1*%
%TO.N,+3.3V*%
X158150000Y-97250000D03*
%TO.P,R1,2*%
%TO.N,Net-(U1-SCL)*%
X158150000Y-96230000D03*
%TD*%
D15*
%TO.N,GND*%
X156450000Y-95600000D03*
X155050000Y-92150000D03*
%TD*%
D16*
%TO.N,+3.3V*%
X155250000Y-100150000D02*
X154975000Y-99875000D01*
X158833273Y-100150000D02*
X155250000Y-100150000D01*
X159108273Y-99875000D02*
X158833273Y-100150000D01*
X159141727Y-99875000D02*
X159108273Y-99875000D01*
X159525000Y-99491727D02*
X159141727Y-99875000D01*
X159525000Y-97575000D02*
X159525000Y-99491727D01*
X159200000Y-97250000D02*
X159525000Y-97575000D01*
X154975000Y-99875000D02*
X154200000Y-100650000D01*
X155500000Y-99350000D02*
X154975000Y-99875000D01*
X155500000Y-96760000D02*
X155500000Y-99350000D01*
%TO.N,Net-(U1-SCL)*%
X157505000Y-96875000D02*
X157505000Y-97955000D01*
X158150000Y-96230000D02*
X157505000Y-96875000D01*
X157505000Y-97955000D02*
X158700000Y-99150000D01*
%TO.N,Net-(U1-SDA)*%
X159992600Y-96342600D02*
X159992600Y-100157400D01*
X159880000Y-96230000D02*
X159992600Y-96342600D01*
X159200000Y-96230000D02*
X159880000Y-96230000D01*
X159992600Y-100157400D02*
X159450000Y-100700000D01*
%TO.N,+3.3V*%
X159200000Y-97250000D02*
X158150000Y-97250000D01*
%TO.N,Net-(U1-SDA)*%
X159200000Y-96146199D02*
X157600001Y-94546200D01*
X159200000Y-96230000D02*
X159200000Y-96146199D01*
%TO.N,Net-(U1-SCL)*%
X157100000Y-95180000D02*
X157100000Y-94546200D01*
X158150000Y-96230000D02*
X157100000Y-95180000D01*
%TO.N,GND*%
X155050000Y-92150000D02*
X155750300Y-92850300D01*
X155750300Y-92850300D02*
X155750300Y-92950000D01*
X155750300Y-92950000D02*
X155750300Y-91998700D01*
X155750300Y-93199700D02*
X155750300Y-92950000D01*
X156600000Y-95450000D02*
X156450000Y-95600000D01*
X156600000Y-94546200D02*
X156600000Y-95450000D01*
X157100000Y-91853800D02*
X157600001Y-91853800D01*
X156600000Y-91853800D02*
X157100000Y-91853800D01*
X156099999Y-91853800D02*
X156600000Y-91853800D01*
X155750300Y-91998700D02*
X155895200Y-91853800D01*
X155895200Y-91853800D02*
X156099999Y-91853800D01*
X154200000Y-94750000D02*
X155750300Y-93199700D01*
X154200000Y-99250000D02*
X154200000Y-94750000D01*
%TO.N,Net-(U1-Vcc)*%
X155500000Y-95146199D02*
X156099999Y-94546200D01*
X155500000Y-95800000D02*
X155500000Y-95146199D01*
%TD*%
M02*
